<?xml version="1.0" encoding="UTF-8"?>
<!--Generator: Apple Native CoreSVG 149-->
<!DOCTYPE svg
PUBLIC "-//W3C//DTD SVG 1.1//EN"
       "http://www.w3.org/Graphics/SVG/1.1/DTD/svg11.dtd">
<svg version="1.1" xmlns="http://www.w3.org/2000/svg" xmlns:xlink="http://www.w3.org/1999/xlink" width="3300" height="2200">
 <!--glyph: "uni1007C0.medium", point size: 100.000000, font version: "Version 16.0d12e3", template writer version: "8"-->
 <g id="Notes">
  <rect height="2200" id="artboard" style="fill:white;opacity:1" width="3300" x="0" y="0"/>
  <line id="" style="fill:none;stroke:black;opacity:1;stroke-width:0.5;" x1="263" x2="3036" y1="292" y2="292"/>
  <text style="stroke:none;fill:black;font-family:-apple-system,&quot;SF Pro Display&quot;,&quot;SF Pro Text&quot;,Helvetica,sans-serif;font-weight:bold;" transform="matrix(1 0 0 1 263 322)">Weight/Scale Variations</text>
  <text style="stroke:none;fill:black;font-family:-apple-system,&quot;SF Pro Display&quot;,&quot;SF Pro Text&quot;,Helvetica,sans-serif;text-anchor:middle;" transform="matrix(1 0 0 1 559.711 322)">Ultralight</text>
  <text style="stroke:none;fill:black;font-family:-apple-system,&quot;SF Pro Display&quot;,&quot;SF Pro Text&quot;,Helvetica,sans-serif;text-anchor:middle;" transform="matrix(1 0 0 1 856.422 322)">Thin</text>
  <text style="stroke:none;fill:black;font-family:-apple-system,&quot;SF Pro Display&quot;,&quot;SF Pro Text&quot;,Helvetica,sans-serif;text-anchor:middle;" transform="matrix(1 0 0 1 1153.13 322)">Light</text>
  <text style="stroke:none;fill:black;font-family:-apple-system,&quot;SF Pro Display&quot;,&quot;SF Pro Text&quot;,Helvetica,sans-serif;text-anchor:middle;" transform="matrix(1 0 0 1 1449.84 322)">Regular</text>
  <text style="stroke:none;fill:black;font-family:-apple-system,&quot;SF Pro Display&quot;,&quot;SF Pro Text&quot;,Helvetica,sans-serif;text-anchor:middle;" transform="matrix(1 0 0 1 1746.56 322)">Medium</text>
  <text style="stroke:none;fill:black;font-family:-apple-system,&quot;SF Pro Display&quot;,&quot;SF Pro Text&quot;,Helvetica,sans-serif;text-anchor:middle;" transform="matrix(1 0 0 1 2043.27 322)">Semibold</text>
  <text style="stroke:none;fill:black;font-family:-apple-system,&quot;SF Pro Display&quot;,&quot;SF Pro Text&quot;,Helvetica,sans-serif;text-anchor:middle;" transform="matrix(1 0 0 1 2339.98 322)">Bold</text>
  <text style="stroke:none;fill:black;font-family:-apple-system,&quot;SF Pro Display&quot;,&quot;SF Pro Text&quot;,Helvetica,sans-serif;text-anchor:middle;" transform="matrix(1 0 0 1 2636.69 322)">Heavy</text>
  <text style="stroke:none;fill:black;font-family:-apple-system,&quot;SF Pro Display&quot;,&quot;SF Pro Text&quot;,Helvetica,sans-serif;text-anchor:middle;" transform="matrix(1 0 0 1 2933.4 322)">Black</text>
  <line id="" style="fill:none;stroke:black;opacity:1;stroke-width:0.5;" x1="263" x2="3036" y1="1903" y2="1903"/>
  <g id="" transform="matrix(1 0 0 1 263 1933)">
   <path d="M9.24805 0.830078C13.5547 0.830078 17.1387-2.74414 17.1387-7.05078C17.1387-11.3574 13.5449-14.9316 9.23828-14.9316C4.94141-14.9316 1.36719-11.3574 1.36719-7.05078C1.36719-2.74414 4.95117 0.830078 9.24805 0.830078ZM9.24805-0.654297C5.70312-0.654297 2.87109-3.49609 2.87109-7.05078C2.87109-10.6055 5.69336-13.4473 9.23828-13.4473C12.793-13.4473 15.6348-10.6055 15.6445-7.05078C15.6543-3.49609 12.8027-0.654297 9.24805-0.654297ZM9.22852-3.62305C9.69727-3.62305 9.9707-3.93555 9.9707-4.45312L9.9707-6.31836L12.002-6.31836C12.5-6.31836 12.832-6.57227 12.832-7.04102C12.832-7.51953 12.5195-7.7832 12.002-7.7832L9.9707-7.7832L9.9707-9.81445C9.9707-10.332 9.69727-10.6543 9.22852-10.6543C8.75977-10.6543 8.50586-10.3125 8.50586-9.81445L8.50586-7.7832L6.49414-7.7832C5.97656-7.7832 5.64453-7.51953 5.64453-7.04102C5.64453-6.57227 5.99609-6.31836 6.49414-6.31836L8.50586-6.31836L8.50586-4.45312C8.50586-3.95508 8.75977-3.62305 9.22852-3.62305Z"/>
  </g>
  <g id="" transform="matrix(1 0 0 1 281.506 1933)">
   <path d="M11.709 2.91016C17.1582 2.91016 21.6699-1.61133 21.6699-7.05078C21.6699-12.5 17.1484-17.0117 11.6992-17.0117C6.25977-17.0117 1.74805-12.5 1.74805-7.05078C1.74805-1.61133 6.26953 2.91016 11.709 2.91016ZM11.709 1.25C7.09961 1.25 3.41797-2.44141 3.41797-7.05078C3.41797-11.6602 7.08984-15.3516 11.6992-15.3516C16.3086-15.3516 20-11.6602 20.0098-7.05078C20.0195-2.44141 16.3184 1.25 11.709 1.25ZM11.6797-2.66602C12.207-2.66602 12.5098-3.01758 12.5098-3.59375L12.5098-6.23047L15.3223-6.23047C15.8691-6.23047 16.25-6.51367 16.25-7.03125C16.25-7.55859 15.8887-7.86133 15.3223-7.86133L12.5098-7.86133L12.5098-10.6836C12.5098-11.25 12.207-11.6113 11.6797-11.6113C11.1621-11.6113 10.8789-11.2305 10.8789-10.6836L10.8789-7.86133L8.07617-7.86133C7.50977-7.86133 7.13867-7.55859 7.13867-7.03125C7.13867-6.51367 7.5293-6.23047 8.07617-6.23047L10.8789-6.23047L10.8789-3.59375C10.8789-3.03711 11.1621-2.66602 11.6797-2.66602Z"/>
  </g>
  <g id="" transform="matrix(1 0 0 1 304.924 1933)">
   <path d="M14.9707 5.66406C21.9336 5.66406 27.6953-0.0976562 27.6953-7.05078C27.6953-14.0137 21.9238-19.7754 14.9609-19.7754C8.00781-19.7754 2.25586-14.0137 2.25586-7.05078C2.25586-0.0976562 8.01758 5.66406 14.9707 5.66406ZM14.9707 3.84766C8.93555 3.84766 4.08203-1.01562 4.08203-7.05078C4.08203-13.0957 8.92578-17.9492 14.9609-17.9492C21.0059-17.9492 25.8594-13.0957 25.8691-7.05078C25.8789-1.01562 21.0156 3.84766 14.9707 3.84766ZM14.9414-1.38672C15.5176-1.38672 15.8594-1.77734 15.8594-2.38281L15.8594-6.13281L19.7754-6.13281C20.3711-6.13281 20.7812-6.46484 20.7812-7.02148C20.7812-7.59766 20.3906-7.93945 19.7754-7.93945L15.8594-7.93945L15.8594-11.8652C15.8594-12.4805 15.5176-12.8711 14.9414-12.8711C14.375-12.8711 14.0527-12.4609 14.0527-11.8652L14.0527-7.93945L10.1465-7.93945C9.53125-7.93945 9.13086-7.59766 9.13086-7.02148C9.13086-6.46484 9.55078-6.13281 10.1465-6.13281L14.0527-6.13281L14.0527-2.38281C14.0527-1.79688 14.375-1.38672 14.9414-1.38672Z"/>
  </g>
  <text style="stroke:none;fill:black;font-family:-apple-system,&quot;SF Pro Display&quot;,&quot;SF Pro Text&quot;,Helvetica,sans-serif;font-weight:bold;" transform="matrix(1 0 0 1 263 1953)">Design Variations</text>
  <text style="stroke:none;fill:black;font-family:-apple-system,&quot;SF Pro Display&quot;,&quot;SF Pro Text&quot;,Helvetica,sans-serif;" transform="matrix(1 0 0 1 263 1971)">Symbols are supported in up to nine weights and three scales.</text>
  <text style="stroke:none;fill:black;font-family:-apple-system,&quot;SF Pro Display&quot;,&quot;SF Pro Text&quot;,Helvetica,sans-serif;" transform="matrix(1 0 0 1 263 1989)">For optimal layout with text and other symbols, vertically align</text>
  <text style="stroke:none;fill:black;font-family:-apple-system,&quot;SF Pro Display&quot;,&quot;SF Pro Text&quot;,Helvetica,sans-serif;" transform="matrix(1 0 0 1 263 2007)">symbols with the adjacent text.</text>
  <line id="" style="fill:none;stroke:#00AEEF;stroke-width:0.5;opacity:1.0;" x1="776" x2="776" y1="1919" y2="1933"/>
  <g id="" transform="matrix(1 0 0 1 776 1933)">
   <path d="M3.31055 0.126953C3.82812 0.126953 4.08203-0.0683594 4.26758-0.605469L5.52734-4.0625L11.2891-4.0625L12.5488-0.605469C12.7344-0.0683594 12.9883 0.126953 13.4961 0.126953C14.0137 0.126953 14.3457-0.185547 14.3457-0.673828C14.3457-0.839844 14.3164-0.986328 14.2383-1.20117L9.6582-13.3887C9.43359-13.9941 9.0332-14.2871 8.4082-14.2871C7.80273-14.2871 7.39258-13.9941 7.17773-13.3984L2.59766-1.19141C2.51953-0.976562 2.49023-0.830078 2.49023-0.664062C2.49023-0.175781 2.80273 0.126953 3.31055 0.126953ZM6.00586-5.53711L8.37891-12.1094L8.42773-12.1094L10.8008-5.53711Z"/>
  </g>
  <line id="" style="fill:none;stroke:#00AEEF;stroke-width:0.5;opacity:1.0;" x1="792.836" x2="792.836" y1="1919" y2="1933"/>
  <text style="stroke:none;fill:black;font-family:-apple-system,&quot;SF Pro Display&quot;,&quot;SF Pro Text&quot;,Helvetica,sans-serif;font-weight:bold;" transform="matrix(1 0 0 1 776 1953)">Margins</text>
  <text style="stroke:none;fill:black;font-family:-apple-system,&quot;SF Pro Display&quot;,&quot;SF Pro Text&quot;,Helvetica,sans-serif;" transform="matrix(1 0 0 1 776 1971)">Leading and trailing margins on the left and right side of each symbol</text>
  <text style="stroke:none;fill:black;font-family:-apple-system,&quot;SF Pro Display&quot;,&quot;SF Pro Text&quot;,Helvetica,sans-serif;" transform="matrix(1 0 0 1 776 1989)">can be adjusted by modifying the x-location of the margin guidelines.</text>
  <text style="stroke:none;fill:black;font-family:-apple-system,&quot;SF Pro Display&quot;,&quot;SF Pro Text&quot;,Helvetica,sans-serif;" transform="matrix(1 0 0 1 776 2007)">Modifications are automatically applied proportionally to all</text>
  <text style="stroke:none;fill:black;font-family:-apple-system,&quot;SF Pro Display&quot;,&quot;SF Pro Text&quot;,Helvetica,sans-serif;" transform="matrix(1 0 0 1 776 2025)">scales and weights.</text>
  <g id="" transform="matrix(1 0 0 1 1289 1933)">
   <path d="M2.8418 1.86523L4.54102 3.57422C5.40039 4.44336 6.38672 4.38477 7.31445 3.35938L17.4902-7.85156C17.7539-7.76367 18.0273-7.7832 18.3398-7.8418L19.4043-8.03711L20.0684-7.36328L20.0293-6.80664C19.9902-6.30859 20.1172-5.92773 20.6055-5.44922L21.3672-4.70703C21.8457-4.22852 22.4609-4.19922 22.9297-4.66797L25.8398-7.58789C26.3086-8.05664 26.2891-8.65234 25.8105-9.13086L25.0391-9.89258C24.5605-10.3711 24.1895-10.5273 23.7109-10.4883L23.1348-10.4395L22.4902-11.0742L22.7344-12.1973C22.8613-12.7637 22.7051-13.2031 22.1191-13.7891L19.9219-15.9766C16.582-19.2969 12.1484-19.2188 9.25781-16.3281C8.83789-15.918 8.80859-15.3418 9.04297-14.9512C9.27734-14.5898 9.73633-14.3555 10.3809-14.5215C11.8457-14.8633 13.3691-14.9219 14.7949-13.9844L14.209-12.5293C14.0137-12.0508 13.9844-11.6504 14.1113-11.2891L3.04688-0.898438C2.06055 0.0195312 1.98242 0.996094 2.8418 1.86523ZM10.752-15.957C13.1836-17.7344 16.4746-17.4316 18.7012-15.2051L21.1328-12.793C21.3672-12.5586 21.4062-12.373 21.3379-12.0312L21.0156-10.5469L22.5195-9.0625L23.5059-9.12109C23.7598-9.13086 23.8379-9.11133 24.0332-8.91602L24.6094-8.33984L22.168-5.89844L21.5918-6.47461C21.3965-6.66992 21.3672-6.74805 21.377-7.01172L21.4453-7.98828L19.9512-9.47266L18.4277-9.21875C18.1055-9.15039 17.959-9.17969 17.7148-9.41406L15.7129-11.416C15.459-11.6504 15.4297-11.8164 15.5859-12.1875L16.4648-14.2773C14.9023-15.7324 12.8711-16.3574 10.8398-15.7617C10.6836-15.7227 10.625-15.8496 10.752-15.957ZM5.27344 2.30469L4.10156 1.14258C3.63281 0.683594 3.74023 0.341797 4.14062-0.0195312L14.9512-10.1953L16.416-8.71094L6.42578 2.27539C6.07422 2.67578 5.74219 2.77344 5.27344 2.30469Z"/>
  </g>
  <text style="stroke:none;fill:black;font-family:-apple-system,&quot;SF Pro Display&quot;,&quot;SF Pro Text&quot;,Helvetica,sans-serif;font-weight:bold;" transform="matrix(1 0 0 1 1289 1953)">Exporting</text>
  <text style="stroke:none;fill:black;font-family:-apple-system,&quot;SF Pro Display&quot;,&quot;SF Pro Text&quot;,Helvetica,sans-serif;" transform="matrix(1 0 0 1 1289 1971)">Symbols should be outlined when exporting to ensure the</text>
  <text style="stroke:none;fill:black;font-family:-apple-system,&quot;SF Pro Display&quot;,&quot;SF Pro Text&quot;,Helvetica,sans-serif;" transform="matrix(1 0 0 1 1289 1989)">design is preserved when submitting to Xcode.</text>
  <text id="template-version" style="stroke:none;fill:black;font-family:-apple-system,&quot;SF Pro Display&quot;,&quot;SF Pro Text&quot;,Helvetica,sans-serif;text-anchor:end;" transform="matrix(1 0 0 1 3036 1933)">Template v.2.0</text>
  <text style="stroke:none;fill:black;font-family:-apple-system,&quot;SF Pro Display&quot;,&quot;SF Pro Text&quot;,Helvetica,sans-serif;text-anchor:end;" transform="matrix(1 0 0 1 3036 1951)">Requires Xcode 12 or greater</text>
  <text style="stroke:none;fill:black;font-family:-apple-system,&quot;SF Pro Display&quot;,&quot;SF Pro Text&quot;,Helvetica,sans-serif;text-anchor:end;" transform="matrix(1 0 0 1 3036 1969)">Generated from ruler</text>
  <text style="stroke:none;fill:black;font-family:-apple-system,&quot;SF Pro Display&quot;,&quot;SF Pro Text&quot;,Helvetica,sans-serif;text-anchor:end;" transform="matrix(1 0 0 1 3036 1987)">Typeset at 100 points</text>
  <text style="stroke:none;fill:black;font-family:-apple-system,&quot;SF Pro Display&quot;,&quot;SF Pro Text&quot;,Helvetica,sans-serif;" transform="matrix(1 0 0 1 263 726)">Small</text>
  <text style="stroke:none;fill:black;font-family:-apple-system,&quot;SF Pro Display&quot;,&quot;SF Pro Text&quot;,Helvetica,sans-serif;" transform="matrix(1 0 0 1 263 1156)">Medium</text>
  <text style="stroke:none;fill:black;font-family:-apple-system,&quot;SF Pro Display&quot;,&quot;SF Pro Text&quot;,Helvetica,sans-serif;" transform="matrix(1 0 0 1 263 1586)">Large</text>
 </g>
 <g id="Guides">
  <g id="H-reference" style="fill:#27AAE1;stroke:none;" transform="matrix(1 0 0 1 339 696)">
   <path d="M0.976562 0L3.66211 0L12.9883-24.4629L45.752-24.4629L55.127 0L57.7637 0L30.6152-70.459L28.125-70.459ZM29.3457-67.1387L29.4434-67.1387L44.873-26.709L13.8672-26.709Z"/>
  </g>
  <line id="Baseline-S" style="fill:none;stroke:#27AAE1;opacity:1;stroke-width:0.5;" x1="263" x2="3036" y1="696" y2="696"/>
  <line id="Capline-S" style="fill:none;stroke:#27AAE1;opacity:1;stroke-width:0.5;" x1="263" x2="3036" y1="625.541" y2="625.541"/>
  <g id="H-reference" style="fill:#27AAE1;stroke:none;" transform="matrix(1 0 0 1 339 1126)">
   <path d="M0.976562 0L3.66211 0L12.9883-24.4629L45.752-24.4629L55.127 0L57.7637 0L30.6152-70.459L28.125-70.459ZM29.3457-67.1387L29.4434-67.1387L44.873-26.709L13.8672-26.709Z"/>
  </g>
  <line id="Baseline-M" style="fill:none;stroke:#27AAE1;opacity:1;stroke-width:0.5;" x1="263" x2="3036" y1="1126" y2="1126"/>
  <line id="Capline-M" style="fill:none;stroke:#27AAE1;opacity:1;stroke-width:0.5;" x1="263" x2="3036" y1="1055.54" y2="1055.54"/>
  <g id="H-reference" style="fill:#27AAE1;stroke:none;" transform="matrix(1 0 0 1 339 1556)">
   <path d="M0.976562 0L3.66211 0L12.9883-24.4629L45.752-24.4629L55.127 0L57.7637 0L30.6152-70.459L28.125-70.459ZM29.3457-67.1387L29.4434-67.1387L44.873-26.709L13.8672-26.709Z"/>
  </g>
  <line id="Baseline-L" style="fill:none;stroke:#27AAE1;opacity:1;stroke-width:0.5;" x1="263" x2="3036" y1="1556" y2="1556"/>
  <line id="Capline-L" style="fill:none;stroke:#27AAE1;opacity:1;stroke-width:0.5;" x1="263" x2="3036" y1="1485.54" y2="1485.54"/>
  <line id="left-margin" style="fill:none;stroke:#00AEEF;stroke-width:0.5;opacity:1.0;" x1="1377.65" x2="1377.65" y1="1030.79" y2="1150.12"/>
  <line id="right-margin" style="fill:none;stroke:#00AEEF;stroke-width:0.5;opacity:1.0;" x1="1522.04" x2="1522.04" y1="1030.79" y2="1150.12"/>
 </g>
 <g id="Symbols">
  <g id="Black-L" transform="matrix(1 0 0 1 2832.74 1556)">
   <path d="M185.254-54.6387C185.254-67.2363 177.441-74.8047 164.697-74.8047L36.5234-74.8047C23.7305-74.8047 16.0645-67.2363 16.0645-54.6387L16.0645-15.918C16.0645-3.32031 23.8281 4.3457 36.6211 4.3457L164.795 4.3457C177.539 4.3457 185.254-3.32031 185.254-15.918ZM167.383-52.002L167.334-18.457C167.334-15.3809 165.527-13.5254 162.598-13.5254L38.623-13.5254C35.7422-13.5254 33.9355-15.3809 33.9355-18.457L33.9355-52.002C33.9355-55.127 35.791-56.9336 38.7207-56.9336L38.8184-56.9336L38.8184-29.3945C38.8184-27.3926 40.5273-25.8301 42.5293-25.8301C44.6289-25.8789 46.0449-27.3926 46.0449-29.4922L46.0449-56.9336L50.4395-56.9336L50.4395-38.1836C50.4395-36.1328 52.1484-34.5703 54.1504-34.6191C56.25-34.6191 57.666-36.1816 57.666-38.2324L57.666-56.9336L62.0605-56.9336L62.0605-38.1836C62.0605-36.1328 63.7207-34.5703 65.7227-34.6191C67.8223-34.6191 69.2383-36.1816 69.2383-38.2324L69.2871-56.9336L73.6328-56.9336L73.6328-38.1836C73.6328-36.1328 75.3418-34.5703 77.3438-34.6191C79.4434-34.6191 80.8594-36.1816 80.8594-38.2324L80.8594-56.9336L85.2539-56.9336L85.2539-38.1836C85.2539-36.1328 86.9629-34.5703 88.9648-34.6191C91.0645-34.6191 92.4805-36.1816 92.4805-38.2324L92.4805-56.9336L96.875-56.9336L96.875-29.3945C96.875-27.3926 98.584-25.8301 100.586-25.8301C102.686-25.8789 104.102-27.3926 104.102-29.4922L104.102-56.9336L108.496-56.9336L108.496-38.1836C108.496-36.1328 110.205-34.5703 112.207-34.6191C114.307-34.6191 115.723-36.1816 115.723-38.2324L115.723-56.9336L120.117-56.9336L120.117-38.1836C120.117-36.1328 121.826-34.5703 123.828-34.6191C125.928-34.6191 127.344-36.1816 127.344-38.2324L127.344-56.9336L131.738-56.9336L131.738-38.1836C131.738-36.1328 133.398-34.5703 135.4-34.6191C137.5-34.6191 138.916-36.1816 138.916-38.2324L138.965-56.9336L143.359-56.9336L143.359-38.1836C143.359-36.1328 145.02-34.5703 147.021-34.6191C149.121-34.6191 150.537-36.1816 150.537-38.2324L150.586-56.9336L154.98-56.9336L154.98-29.3945C154.98-27.3926 156.641-25.8301 158.643-25.8301C160.742-25.8789 162.158-27.3926 162.158-29.4922L162.207-56.9336L162.695-56.9336C165.576-56.9336 167.383-55.127 167.383-52.002Z"/>
  </g>
  <g id="Heavy-L" transform="matrix(1 0 0 1 2538.01 1556)">
   <path d="M181.299-53.9551C181.299-66.1621 173.926-73.291 161.67-73.291L35.5957-73.291C23.291-73.291 16.0645-66.1621 16.0645-53.9551L16.1133-16.5527C16.1133-4.39453 23.3398 2.83203 35.6934 2.83203L161.719 2.83203C174.023 2.83203 181.299-4.39453 181.299-16.5527ZM165.576-51.6602L165.527-18.8477C165.527-15.0391 163.379-12.8906 159.766-12.8906L37.5-12.8906C33.9355-12.8906 31.7871-15.0391 31.7871-18.8477L31.7871-51.6602C31.7871-55.4199 33.9844-57.6172 37.5977-57.6172L37.7441-57.6172L37.7441-29.1992C37.7441-27.3438 39.2578-25.9277 41.1133-25.9277C43.0176-25.9766 44.3359-27.3926 44.3359-29.2969L44.3848-57.6172L49.2676-57.6172L49.2676-38.5254C49.2676-36.6211 50.7812-35.2051 52.6367-35.2539C54.541-35.2539 55.8594-36.6699 55.8594-38.5742L55.8594-57.6172L60.7422-57.6172L60.7422-38.5254C60.7422-36.6211 62.2559-35.2051 64.1113-35.2539C66.0156-35.2539 67.334-36.6699 67.334-38.5742L67.3828-57.6172L72.2168-57.6172L72.2168-38.5254C72.2168-36.6211 73.7793-35.2051 75.5859-35.2539C77.5391-35.2539 78.8086-36.6699 78.8086-38.5742L78.8574-57.6172L83.7402-57.6172L83.7402-38.5254C83.7402-36.6211 85.2539-35.2051 87.1094-35.2539C89.0625-35.2539 90.332-36.6699 90.332-38.5742L90.3809-57.6172L95.2637-57.6172L95.2637-29.1992C95.2637-27.3438 96.7773-25.9277 98.6328-25.9277C100.537-25.9766 101.855-27.3926 101.855-29.2969L101.904-57.6172L106.738-57.6172L106.738-38.5254C106.738-36.6211 108.301-35.2051 110.107-35.2539C112.061-35.2539 113.33-36.6699 113.33-38.5742L113.379-57.6172L118.262-57.6172L118.262-38.5254C118.262-36.6211 119.775-35.2051 121.631-35.2539C123.584-35.2539 124.854-36.6699 124.854-38.5742L124.902-57.6172L129.736-57.6172L129.736-38.5254C129.736-36.6211 131.299-35.2051 133.105-35.2539C135.059-35.2539 136.328-36.6699 136.328-38.5742L136.377-57.6172L141.26-57.6172L141.26-38.5254C141.26-36.6211 142.773-35.2051 144.629-35.2539C146.582-35.2539 147.852-36.6699 147.852-38.5742L147.9-57.6172L152.734-57.6172L152.734-29.1992C152.734-27.3438 154.297-25.9277 156.152-25.9277C158.057-25.9766 159.375-27.3926 159.375-29.2969L159.375-57.6172L159.814-57.6172C163.428-57.6172 165.576-55.4199 165.576-51.6602Z"/>
  </g>
  <g id="Bold-L" transform="matrix(1 0 0 1 2243.54 1556)">
   <path d="M176.807-53.2715C176.807-64.9414 170.02-71.582 158.252-71.582L34.5703-71.582C22.7539-71.582 16.0645-64.9414 16.0645-53.2715L16.1133-17.2363C16.1133-5.56641 22.8516 1.12305 34.6191 1.12305L158.301 1.12305C170.117 1.12305 176.807-5.56641 176.807-17.2363ZM163.525-51.2207L163.525-19.2383C163.525-14.6973 160.938-12.1582 156.592-12.1582L36.2305-12.1582C31.9336-12.1582 29.3457-14.6973 29.3457-19.2383L29.3457-51.2207C29.3457-55.8105 31.9336-58.3496 36.3281-58.3496L36.5234-58.3496L36.5234-29.0039C36.5234-27.2949 37.8906-26.0254 39.5508-26.0742C41.3086-26.0742 42.4805-27.3438 42.4805-29.0527L42.4805-58.3496L47.9004-58.3496L47.9004-38.8672C47.9004-37.1582 49.2676-35.8887 50.9277-35.9375C52.6855-35.9863 53.8574-37.207 53.8574-38.9648L53.9062-58.3496L59.2773-58.3496L59.2773-38.8672C59.2773-37.1582 60.6445-35.8887 62.2559-35.9375C64.0137-35.9863 65.2344-37.207 65.2344-38.9648L65.2344-58.3496L70.6055-58.3496L70.6055-38.8672C70.6055-37.1582 71.9727-35.8887 73.6328-35.9375C75.3906-35.9863 76.5625-37.207 76.5625-38.9648L76.6113-58.3496L82.0312-58.3496L82.0312-38.8672C82.0312-37.1582 83.3984-35.8887 85.0098-35.9375C86.7676-35.9863 87.9395-37.207 87.9395-38.9648L87.9883-58.3496L93.4082-58.3496L93.4082-29.0039C93.4082-27.2949 94.7754-26.0254 96.4355-26.0742C98.1934-26.0742 99.3652-27.3438 99.3652-29.0527L99.4141-58.3496L104.785-58.3496L104.785-38.8672C104.785-37.1582 106.152-35.8887 107.812-35.9375C109.521-35.9863 110.742-37.207 110.742-38.9648L110.742-58.3496L116.162-58.3496L116.162-38.8672C116.162-37.1582 117.529-35.8887 119.189-35.9375C120.947-35.9863 122.119-37.207 122.119-38.9648L122.168-58.3496L127.539-58.3496L127.539-38.8672C127.539-37.1582 128.906-35.8887 130.518-35.9375C132.275-35.9863 133.447-37.207 133.447-38.9648L133.496-58.3496L138.916-58.3496L138.916-38.8672C138.916-37.1582 140.283-35.8887 141.943-35.9375C143.701-35.9863 144.873-37.207 144.873-38.9648L144.873-58.3496L150.293-58.3496L150.293-29.0039C150.293-27.2949 151.66-26.0254 153.32-26.0742C155.078-26.0742 156.25-27.3438 156.25-29.0527L156.25-58.3496L156.641-58.3496C160.986-58.3496 163.525-55.8105 163.525-51.2207Z"/>
  </g>
  <g id="Semibold-L" transform="matrix(1 0 0 1 1948.34 1556)">
   <path d="M173.779-52.7832C173.779-64.1113 167.334-70.4102 155.908-70.4102L33.8867-70.4102C22.4121-70.4102 16.0645-64.1113 16.0645-52.7832L16.1133-17.7246C16.1133-6.39648 22.4609-0.0488281 33.9355-0.0488281L155.957-0.0488281C167.383-0.0488281 173.779-6.39648 173.779-17.7246ZM162.158-50.9277L162.109-19.5312C162.109-14.4043 159.277-11.6211 154.395-11.6211L35.4004-11.6211C30.5176-11.6211 27.6855-14.4043 27.6855-19.5312L27.6855-50.9277C27.6855-56.0547 30.5176-58.8379 35.4492-58.8379L35.6934-58.8379L35.6934-28.8574C35.6934-27.2461 36.9141-26.0742 38.4277-26.123C40.0879-26.1719 41.1621-27.2949 41.1621-28.9062L41.2109-58.8379L46.9727-58.8379L46.9727-39.1602C46.9727-37.5488 48.2422-36.377 49.7559-36.4258C51.3672-36.4746 52.4902-37.5977 52.4902-39.209L52.4902-58.8379L58.252-58.8379L58.252-39.1602C58.252-37.5488 59.4727-36.377 61.0352-36.4258C62.6465-36.4746 63.7207-37.5977 63.7207-39.209L63.7695-58.8379L69.5312-58.8379L69.5312-39.1602C69.5312-37.5488 70.752-36.377 72.2656-36.4258C73.9258-36.4746 75-37.5977 75-39.209L75.0488-58.8379L80.8105-58.8379L80.8105-39.1602C80.8105-37.5488 82.0801-36.377 83.5938-36.4258C85.2051-36.4746 86.3281-37.5977 86.3281-39.209L86.3281-58.8379L92.1387-58.8379L92.1387-28.8574C92.1387-27.2461 93.4082-26.0742 94.9219-26.123C96.5332-26.1719 97.6562-27.2949 97.6562-28.9062L97.6562-58.8379L103.418-58.8379L103.418-39.1602C103.418-37.5488 104.639-36.377 106.201-36.4258C107.812-36.4746 108.887-37.5977 108.887-39.209L108.936-58.8379L114.746-58.8379L114.746-39.1602C114.746-37.5488 115.967-36.377 117.48-36.4258C119.141-36.4746 120.215-37.5977 120.215-39.209L120.264-58.8379L125.977-58.8379L125.977-39.1602C125.977-37.5488 127.246-36.377 128.76-36.4258C130.371-36.4746 131.494-37.5977 131.494-39.209L131.543-58.8379L137.305-58.8379L137.305-39.1602C137.305-37.5488 138.525-36.377 140.088-36.4258C141.699-36.4746 142.773-37.5977 142.773-39.209L142.822-58.8379L148.584-58.8379L148.584-28.8574C148.584-27.2461 149.854-26.0742 151.367-26.123C152.979-26.1719 154.102-27.2949 154.102-28.9062L154.102-58.8379L154.443-58.8379C159.277-58.8379 162.158-56.0547 162.158-50.9277Z"/>
  </g>
  <g id="Medium-L" transform="matrix(1 0 0 1 1652.81 1556)">
   <path d="M171.436-52.3926C171.436-63.4766 165.283-69.5312 154.102-69.5312L33.3496-69.5312C22.1191-69.5312 16.0645-63.4766 16.0645-52.3926L16.1133-18.0664C16.1133-6.98242 22.168-0.927734 33.3984-0.927734L154.15-0.927734C165.332-0.927734 171.436-6.98242 171.436-18.0664ZM161.084-50.7324L161.084-19.7266C161.084-14.209 158.008-11.2305 152.686-11.2305L34.7168-11.2305C29.4434-11.2305 26.416-14.209 26.416-19.7266L26.416-50.7324C26.416-56.2012 29.4922-59.2285 34.7656-59.2285L35.0098-59.2285L35.0098-28.7598C35.0098-27.2461 36.1816-26.1719 37.6465-26.1719C39.1602-26.2207 40.1855-27.2949 40.1855-28.8086L40.2344-59.2285L46.2891-59.2285L46.2891-39.3555C46.2891-37.8418 47.4121-36.7676 48.877-36.8164C50.3906-36.8164 51.416-37.8906 51.416-39.4043L51.4648-59.2285L57.4707-59.2285L57.4707-39.3555C57.4707-37.8418 58.6426-36.7676 60.0586-36.8164C61.6211-36.8164 62.6465-37.8906 62.6465-39.4043L62.6465-59.2285L68.6523-59.2285L68.6523-39.3555C68.6523-37.8418 69.8242-36.7676 71.2891-36.8164C72.8027-36.8164 73.8281-37.8906 73.8281-39.4043L73.877-59.2285L79.9316-59.2285L79.9316-39.3555C79.9316-37.8418 81.0547-36.7676 82.5195-36.8164C84.0332-36.8164 85.0586-37.8906 85.0586-39.4043L85.1074-59.2285L91.2109-59.2285L91.2109-28.7598C91.2109-27.2461 92.334-26.1719 93.7988-26.1719C95.3125-26.2207 96.3379-27.2949 96.3379-28.8086L96.3867-59.2285L102.393-59.2285L102.393-39.3555C102.393-37.8418 103.564-36.7676 104.98-36.8164C106.494-36.8164 107.52-37.8906 107.52-39.4043L107.568-59.2285L113.623-59.2285L113.623-39.3555C113.623-37.8418 114.795-36.7676 116.211-36.8164C117.773-36.8164 118.799-37.8906 118.799-39.4043L118.799-59.2285L124.805-59.2285L124.805-39.3555C124.805-37.8418 125.977-36.7676 127.441-36.8164C128.955-36.8164 129.98-37.8906 129.98-39.4043L130.029-59.2285L136.084-59.2285L136.084-39.3555C136.084-37.8418 137.207-36.7676 138.672-36.8164C140.186-36.8164 141.211-37.8906 141.211-39.4043L141.26-59.2285L147.314-59.2285L147.314-28.7598C147.314-27.2461 148.438-26.1719 149.902-26.1719C151.416-26.2207 152.441-27.2949 152.441-28.8086L152.49-59.2285L152.783-59.2285C158.008-59.2285 161.084-56.2012 161.084-50.7324Z"/>
  </g>
  <g id="Regular-L" transform="matrix(1 0 0 1 1357.61 1556)">
   <path d="M168.408-51.9043C168.408-62.6465 162.646-68.3594 151.758-68.3594L32.6172-68.3594C21.7773-68.3594 16.0645-62.6465 16.0645-51.9043L16.1133-18.5547C16.1133-7.8125 21.8262-2.09961 32.666-2.09961L151.807-2.09961C162.695-2.09961 168.408-7.8125 168.408-18.5547ZM159.668-50.4395L159.668-19.9707C159.668-13.9648 156.348-10.7422 150.537-10.7422L33.8867-10.7422C28.0762-10.7422 24.7559-13.9648 24.7559-19.9707L24.7559-50.4395C24.7559-56.4453 28.0762-59.7168 33.9355-59.7168L34.1797-59.7168L34.1797-28.6133C34.1797-27.1973 35.2539-26.2207 36.5723-26.2695C37.9395-26.3184 38.916-27.2461 38.916-28.6621L38.9648-59.7168L45.3613-59.7168L45.3613-39.5996C45.3613-38.2324 46.3867-37.207 47.7051-37.2559C49.1211-37.3047 50.0488-38.2812 50.0488-39.6484L50.0977-59.7168L56.4941-59.7168L56.4941-39.5996C56.4941-38.2324 57.5195-37.207 58.8379-37.2559C60.2539-37.3047 61.1816-38.2812 61.1816-39.6484L61.2305-59.7168L67.5781-59.7168L67.5781-39.5996C67.5781-38.2324 68.6035-37.207 69.9219-37.2559C71.3379-37.3047 72.2656-38.2812 72.2656-39.6484L72.3145-59.7168L78.7598-59.7168L78.7598-39.5996C78.7598-38.2324 79.7852-37.207 81.1035-37.2559C82.5195-37.3047 83.4473-38.2812 83.4473-39.6484L83.4961-59.7168L89.9414-59.7168L89.9414-28.6133C89.9414-27.1973 90.9668-26.2207 92.2852-26.2695C93.7012-26.3184 94.6289-27.2461 94.6289-28.6621L94.6777-59.7168L101.025-59.7168L101.025-39.5996C101.025-38.2324 102.1-37.207 103.418-37.2559C104.785-37.3047 105.762-38.2812 105.762-39.6484L105.811-59.7168L112.207-59.7168L112.207-39.5996C112.207-38.2324 113.232-37.207 114.551-37.2559C115.967-37.3047 116.895-38.2812 116.895-39.6484L116.943-59.7168L123.34-59.7168L123.34-39.5996C123.34-38.2324 124.365-37.207 125.684-37.2559C127.051-37.3047 128.027-38.2812 128.027-39.6484L128.076-59.7168L134.473-59.7168L134.473-39.5996C134.473-38.2324 135.498-37.207 136.816-37.2559C138.232-37.3047 139.16-38.2812 139.16-39.6484L139.209-59.7168L145.605-59.7168L145.605-28.6133C145.605-27.1973 146.631-26.2207 147.949-26.2695C149.365-26.3184 150.293-27.2461 150.293-28.6621L150.342-59.7168L150.586-59.7168C156.348-59.7168 159.668-56.4453 159.668-50.4395Z"/>
  </g>
  <g id="Light-L" transform="matrix(1 0 0 1 1062.17 1556)">
   <path d="M165.869-51.2207C165.869-61.377 160.205-66.9922 150-66.9922L31.9336-66.9922C21.6797-66.9922 16.0645-61.377 16.0645-51.2207L16.1133-19.2871C16.1133-9.13086 21.7285-3.4668 31.9336-3.4668L150-3.4668C160.254-3.4668 165.869-9.13086 165.869-19.2871ZM159.229-50.2441L159.229-20.2148C159.229-13.7207 155.518-10.1074 149.17-10.1074L32.7637-10.1074C26.3672-10.1074 22.7051-13.7207 22.7051-20.2148L22.7051-50.2441C22.7051-56.7871 26.3672-60.3516 32.7637-60.3516L33.0078-60.3516L33.0078-28.5156C33.0078-27.2461 33.8867-26.3672 35.0586-26.416C36.2793-26.4648 37.1094-27.2949 37.1094-28.5156L37.1582-60.3516L44.1895-60.3516L44.1895-39.4531C44.1895-38.1836 45.0684-37.3535 46.2402-37.3535C47.5098-37.4023 48.3398-38.2324 48.3398-39.502L48.3398-60.3516L55.3711-60.3516L55.3711-39.4531C55.3711-38.1836 56.25-37.3535 57.4219-37.3535C58.6426-37.4023 59.4727-38.2324 59.4727-39.502L59.5215-60.3516L66.5039-60.3516L66.5039-39.4531C66.5039-38.1836 67.3828-37.3535 68.6035-37.3535C69.8242-37.4023 70.6543-38.2324 70.6543-39.502L70.7031-60.3516L77.7344-60.3516L77.7344-39.4531C77.7344-38.1836 78.6133-37.3535 79.7852-37.3535C81.0059-37.4023 81.8359-38.2324 81.8359-39.502L81.8848-60.3516L88.9648-60.3516L88.9648-28.5156C88.9648-27.2461 89.8438-26.3672 91.0156-26.416C92.2852-26.4648 93.1152-27.2949 93.1152-28.5156L93.1152-60.3516L100.146-60.3516L100.146-39.4531C100.146-38.1836 101.025-37.3535 102.197-37.3535C103.418-37.4023 104.248-38.2324 104.248-39.502L104.297-60.3516L111.328-60.3516L111.328-39.4531C111.328-38.1836 112.207-37.3535 113.379-37.3535C114.648-37.4023 115.479-38.2324 115.479-39.502L115.479-60.3516L122.51-60.3516L122.51-39.4531C122.51-38.1836 123.389-37.3535 124.561-37.3535C125.781-37.4023 126.611-38.2324 126.611-39.502L126.66-60.3516L133.691-60.3516L133.691-39.4531C133.691-38.1836 134.57-37.3535 135.742-37.3535C137.012-37.4023 137.842-38.2324 137.842-39.502L137.842-60.3516L144.824-60.3516L144.824-28.5156C144.824-27.2461 145.703-26.3672 146.924-26.416C148.145-26.4648 148.975-27.2949 148.975-28.5156L149.023-60.3516L149.17-60.3516C155.518-60.3516 159.229-56.7871 159.229-50.2441Z"/>
  </g>
  <g id="Thin-L" transform="matrix(1 0 0 1 767.14 1556)">
   <path d="M162.5-50.293C162.5-59.668 157.031-65.1855 147.607-65.1855L30.957-65.1855C21.582-65.1855 16.0645-59.668 16.0645-50.293L16.0645-20.2148C16.0645-10.8398 21.582-5.32227 30.957-5.32227L147.607-5.32227C157.031-5.32227 162.5-10.8398 162.5-20.2148ZM158.594-50L158.594-20.5566C158.594-13.3301 154.443-9.27734 147.314-9.27734L31.25-9.27734C24.1699-9.27734 20.0195-13.3301 20.0195-20.5566L20.0195-50C20.0195-57.1777 24.1699-61.2305 31.25-61.2305L31.3965-61.2305L31.3965-28.3691C31.3965-27.2949 32.0801-26.6113 33.1055-26.6113C34.082-26.6113 34.7656-27.2949 34.7656-28.3691L34.8145-61.2305L42.627-61.2305L42.627-39.2578C42.627-38.1836 43.3105-37.5 44.3359-37.5C45.3613-37.5 46.0449-38.1836 46.0449-39.2578L46.0449-61.2305L53.8574-61.2305L53.8574-39.2578C53.8574-38.1836 54.541-37.5 55.5664-37.5C56.5918-37.5 57.2754-38.1836 57.2754-39.2578L57.2754-61.2305L65.0879-61.2305L65.0879-39.2578C65.0879-38.1836 65.8203-37.5 66.7969-37.5C67.8223-37.5 68.5059-38.1836 68.5059-39.2578L68.5059-61.2305L76.3672-61.2305L76.3672-39.2578C76.3672-38.1836 77.0508-37.5 78.0762-37.5C79.0527-37.5 79.7363-38.1836 79.7363-39.2578L79.7852-61.2305L87.6465-61.2305L87.6465-28.3691C87.6465-27.2949 88.3789-26.6113 89.3555-26.6113C90.3809-26.6113 91.0645-27.2949 91.0645-28.3691L91.0645-61.2305L98.9258-61.2305L98.9258-39.2578C98.9258-38.1836 99.6094-37.5 100.635-37.5C101.611-37.5 102.295-38.1836 102.295-39.2578L102.344-61.2305L110.156-61.2305L110.156-39.2578C110.156-38.1836 110.84-37.5 111.865-37.5C112.891-37.5 113.574-38.1836 113.574-39.2578L113.574-61.2305L121.387-61.2305L121.387-39.2578C121.387-38.1836 122.07-37.5 123.096-37.5C124.121-37.5 124.805-38.1836 124.805-39.2578L124.805-61.2305L132.617-61.2305L132.617-39.2578C132.617-38.1836 133.35-37.5 134.326-37.5C135.352-37.5 136.035-38.1836 136.035-39.2578L136.035-61.2305L143.799-61.2305L143.799-28.3691C143.799-27.2949 144.482-26.6113 145.508-26.6113C146.533-26.6113 147.217-27.2949 147.217-28.3691L147.217-61.2305L147.314-61.2305C154.443-61.2305 158.594-57.1777 158.594-50Z"/>
  </g>
  <g id="Ultralight-L" transform="matrix(1 0 0 1 471.283 1556)">
   <path d="M160.791-49.8535C160.791-58.8379 155.371-64.2578 146.436-64.2578L30.4688-64.2578C21.5332-64.2578 16.0645-58.8379 16.0645-49.8535L16.0645-20.7031C16.0645-11.7188 21.4844-6.29883 30.4688-6.29883L146.387-6.29883C155.371-6.29883 160.791-11.7188 160.791-20.7031ZM158.252-49.8535L158.252-20.7031C158.252-13.1348 153.906-8.83789 146.387-8.83789L30.5176-8.83789C22.998-8.83789 18.6035-13.1348 18.6035-20.7031L18.6035-49.8535C18.6035-57.4219 22.998-61.7188 30.5176-61.7188L30.5664-61.7188L30.5664-28.3203C30.5664-27.3438 31.1523-26.709 32.0801-26.709C32.959-26.709 33.5938-27.2949 33.5938-28.3203L33.5938-61.7188L41.8457-61.7188L41.8457-39.1602C41.8457-38.1348 42.4316-37.5488 43.3594-37.5488C44.2383-37.5488 44.873-38.1348 44.873-39.1602L44.873-61.7188L53.0762-61.7188L53.0762-39.1602C53.0762-38.1348 53.7109-37.5488 54.6387-37.5488C55.5176-37.5488 56.1523-38.1348 56.1523-39.1602L56.1523-61.7188L64.3555-61.7188L64.3555-39.1602C64.3555-38.1348 64.9902-37.5488 65.918-37.5488C66.7969-37.5488 67.4316-38.1348 67.4316-39.1602L67.3828-61.7188L75.6348-61.7188L75.6348-39.1602C75.6348-38.1348 76.2207-37.5488 77.1484-37.5488C78.0762-37.5488 78.6621-38.1348 78.6621-39.1602L78.6621-61.7188L87.0117-61.7188L87.0117-28.3203C87.0117-27.3438 87.5977-26.709 88.5254-26.709C89.4531-26.709 90.0391-27.2949 90.0391-28.3203L90.0391-61.7188L98.291-61.7188L98.291-39.1602C98.291-38.1348 98.877-37.5488 99.8047-37.5488C100.732-37.5488 101.318-38.1348 101.318-39.1602L101.318-61.7188L109.57-61.7188L109.57-39.1602C109.57-38.1348 110.156-37.5488 111.084-37.5488C111.963-37.5488 112.598-38.1348 112.598-39.1602L112.598-61.7188L120.85-61.7188L120.85-39.1602C120.85-38.1348 121.436-37.5488 122.363-37.5488C123.242-37.5488 123.877-38.1348 123.877-39.1602L123.877-61.7188L132.08-61.7188L132.08-39.1602C132.08-38.1348 132.715-37.5488 133.643-37.5488C134.521-37.5488 135.156-38.1348 135.156-39.1602L135.107-61.7188L143.262-61.7188L143.262-28.3203C143.262-27.3438 143.896-26.709 144.824-26.709C145.703-26.709 146.338-27.2949 146.338-28.3203L146.338-61.7188L146.387-61.7188C153.906-61.7188 158.252-57.4219 158.252-49.8535Z"/>
  </g>
  <g id="Black-M" transform="matrix(1 0 0 1 2853.37 1126)">
   <path d="M147.607-50.7812C147.607-60.791 140.918-67.2363 130.811-67.2363L29.1504-67.2363C18.9941-67.2363 12.4512-60.791 12.4512-50.7812L12.4512-19.8242C12.4512-9.76562 19.043-3.22266 29.248-3.22266L130.859-3.22266C141.016-3.22266 147.607-9.76562 147.607-19.8242ZM131.934-48.6328L131.836-21.875C131.836-20.1172 130.762-18.9941 129.15-18.9941L30.8594-18.9941C29.1992-18.9941 28.125-20.1172 28.125-21.875L28.125-48.6328C28.125-50.3906 29.2969-51.5625 30.9082-51.5625L30.9082-30.9082C30.9082-29.1992 32.373-27.8809 34.0332-27.8809C35.791-27.8809 37.0117-29.1992 37.0117-30.957L37.0117-51.5625L40.0879-51.5625L40.0879-36.9629C40.0879-35.2539 41.5039-33.9355 43.2129-33.9355C44.9707-33.9355 46.1914-35.2539 46.1914-37.0117L46.1426-51.5625L49.2676-51.5625L49.2676-36.9629C49.2676-35.2539 50.6836-33.9355 52.3926-33.9355C54.1504-33.9355 55.3223-35.2539 55.3223-37.0117L55.3223-51.5625L58.4473-51.5625L58.4473-36.9629C58.4473-35.2539 59.8633-33.9355 61.5723-33.9355C63.3301-33.9355 64.502-35.2539 64.502-37.0117L64.502-51.5625L67.627-51.5625L67.627-36.9629C67.627-35.2539 69.043-33.9355 70.752-33.9355C72.5098-33.9355 73.6816-35.2539 73.6816-37.0117L73.6816-51.5625L76.8066-51.5625L76.8066-30.9082C76.8066-29.1992 78.2227-27.8809 79.9316-27.8809C81.6895-27.8809 82.8613-29.1992 82.8613-30.957L82.8613-51.5625L85.9863-51.5625L85.9863-36.9629C85.9863-35.2539 87.4023-33.9355 89.1113-33.9355C90.8691-33.9355 92.041-35.2539 92.041-37.0117L92.041-51.5625L95.1172-51.5625L95.1172-36.9629C95.1172-35.2539 96.582-33.9355 98.291-33.9355C100.049-33.9355 101.221-35.2539 101.221-37.0117L101.221-51.5625L104.297-51.5625L104.297-36.9629C104.297-35.2539 105.762-33.9355 107.471-33.9355C109.229-33.9355 110.4-35.2539 110.4-37.0117L110.4-51.5625L113.477-51.5625L113.477-36.9629C113.477-35.2539 114.941-33.9355 116.65-33.9355C118.408-33.9355 119.58-35.2539 119.58-37.0117L119.58-51.5625L122.656-51.5625L122.656-30.9082C122.656-29.1992 124.121-27.8809 125.781-27.8809C127.539-27.8809 128.76-29.1992 128.76-30.957L128.76-51.5625L129.199-51.5625C130.811-51.5625 131.934-50.3906 131.934-48.6328Z"/>
  </g>
  <g id="Heavy-M" transform="matrix(1 0 0 1 2558.52 1126)">
   <path d="M143.896-50.2441C143.896-59.9609 137.744-65.918 127.93-65.918L28.3691-65.918C18.5059-65.918 12.4512-59.9609 12.4512-50.2441L12.4512-20.3125C12.4512-10.5957 18.5547-4.54102 28.418-4.54102L128.027-4.54102C137.793-4.54102 143.896-10.5957 143.896-20.3125ZM130.078-48.291L130.029-22.2168C130.029-19.873 128.613-18.4082 126.367-18.4082L29.9316-18.4082C27.6855-18.4082 26.2695-19.873 26.2695-22.2168L26.2695-48.291C26.2695-50.6348 27.7344-52.0996 29.9805-52.0996L30.0293-52.0996L30.0293-30.7129C30.0293-29.1504 31.3477-27.9785 32.9102-27.9785C34.5215-27.9785 35.5957-29.1992 35.5957-30.8105L35.6445-52.0996L39.0625-52.0996L39.0625-37.3535C39.0625-35.791 40.3809-34.6191 41.9434-34.6191C43.5547-34.6191 44.6777-35.8398 44.6777-37.4512L44.6777-52.0996L48.0957-52.0996L48.0957-37.3535C48.0957-35.791 49.4141-34.6191 50.9766-34.6191C52.5879-34.6191 53.7109-35.8398 53.7109-37.4512L53.7109-52.0996L57.1289-52.0996L57.1289-37.3535C57.1289-35.791 58.4473-34.6191 60.0098-34.6191C61.6211-34.6191 62.7441-35.8398 62.7441-37.4512L62.7441-52.0996L66.2109-52.0996L66.2109-37.3535C66.2109-35.791 67.5293-34.6191 69.043-34.6191C70.7031-34.6191 71.7773-35.8398 71.7773-37.4512L71.7773-52.0996L75.2441-52.0996L75.2441-30.7129C75.2441-29.1504 76.5625-27.9785 78.125-27.9785C79.7363-27.9785 80.8105-29.1992 80.8105-30.8105L80.8594-52.0996L84.2773-52.0996L84.2773-37.3535C84.2773-35.791 85.5957-34.6191 87.1582-34.6191C88.7695-34.6191 89.8438-35.8398 89.8438-37.4512L89.8926-52.0996L93.3105-52.0996L93.3105-37.3535C93.3105-35.791 94.6289-34.6191 96.1914-34.6191C97.8027-34.6191 98.9258-35.8398 98.9258-37.4512L98.9258-52.0996L102.344-52.0996L102.344-37.3535C102.344-35.791 103.662-34.6191 105.225-34.6191C106.836-34.6191 107.959-35.8398 107.959-37.4512L107.959-52.0996L111.426-52.0996L111.426-37.3535C111.426-35.791 112.744-34.6191 114.258-34.6191C115.918-34.6191 116.992-35.8398 116.992-37.4512L116.992-52.0996L120.459-52.0996L120.459-30.7129C120.459-29.1504 121.777-27.9785 123.34-27.9785C124.951-27.9785 126.025-29.1992 126.025-30.8105L126.025-52.0996L126.416-52.0996C128.662-52.0996 130.078-50.6348 130.078-48.291Z"/>
  </g>
  <g id="Bold-M" transform="matrix(1 0 0 1 2263.88 1126)">
   <path d="M139.746-49.6582C139.746-58.9844 134.18-64.4531 124.756-64.4531L27.4414-64.4531C17.9688-64.4531 12.4512-58.9844 12.4512-49.6582L12.4512-20.8496C12.4512-11.4746 18.0176-6.00586 27.4902-6.00586L124.805-6.00586C134.229-6.00586 139.746-11.4746 139.746-20.8496ZM127.979-47.9004L127.93-22.6074C127.93-19.5312 126.221-17.7734 123.291-17.7734L28.8574-17.7734C25.9766-17.7734 24.2188-19.5312 24.2188-22.6074L24.2188-47.9004C24.2188-50.9277 26.0254-52.6855 28.9062-52.6855L29.0527-52.6855L29.0527-30.5176C29.0527-29.1016 30.2246-28.0273 31.5918-28.0273C33.1055-28.0762 34.082-29.1504 34.082-30.5664L34.082-52.6855L37.9395-52.6855L37.9395-37.8418C37.9395-36.4258 39.1113-35.3516 40.5273-35.3516C41.9922-35.4004 42.9688-36.4258 42.9688-37.8906L43.0176-52.6855L46.8262-52.6855L46.8262-37.8418C46.8262-36.4258 47.998-35.3516 49.4141-35.3516C50.8789-35.4004 51.8555-36.4258 51.8555-37.8906L51.8555-52.6855L55.7129-52.6855L55.7129-37.8418C55.7129-36.4258 56.8848-35.3516 58.252-35.3516C59.7656-35.4004 60.7422-36.4258 60.7422-37.8906L60.7422-52.6855L64.5996-52.6855L64.5996-37.8418C64.5996-36.4258 65.7715-35.3516 67.1875-35.3516C68.6523-35.4004 69.6289-36.4258 69.6289-37.8906L69.6777-52.6855L73.5352-52.6855L73.5352-30.5176C73.5352-29.1016 74.707-28.0273 76.0742-28.0273C77.5391-28.0762 78.5645-29.1504 78.5645-30.5664L78.5645-52.6855L82.4219-52.6855L82.4219-37.8418C82.4219-36.4258 83.5449-35.3516 84.9609-35.3516C86.4258-35.4004 87.4023-36.4258 87.4023-37.8906L87.4512-52.6855L91.3086-52.6855L91.3086-37.8418C91.3086-36.4258 92.4805-35.3516 93.8477-35.3516C95.3125-35.4004 96.3379-36.4258 96.3379-37.8906L96.3379-52.6855L100.195-52.6855L100.195-37.8418C100.195-36.4258 101.367-35.3516 102.734-35.3516C104.199-35.4004 105.225-36.4258 105.225-37.8906L105.225-52.6855L109.082-52.6855L109.082-37.8418C109.082-36.4258 110.254-35.3516 111.621-35.3516C113.086-35.4004 114.111-36.4258 114.111-37.8906L114.111-52.6855L117.969-52.6855L117.969-30.5176C117.969-29.1016 119.141-28.0273 120.557-28.0273C122.021-28.0762 122.998-29.1504 122.998-30.5664L122.998-52.6855L123.34-52.6855C126.221-52.6855 127.979-50.9277 127.979-47.9004Z"/>
  </g>
  <g id="Semibold-M" transform="matrix(1 0 0 1 1968.58 1126)">
   <path d="M136.914-49.2188C136.914-58.3496 131.689-63.4277 122.51-63.4277L26.8066-63.4277C17.5781-63.4277 12.4512-58.3496 12.4512-49.2188L12.5-21.2402C12.5-12.1094 17.627-6.98242 26.8555-6.98242L122.559-6.98242C131.787-6.98242 136.914-12.1094 136.914-21.2402ZM126.562-47.6074L126.514-22.8516C126.514-19.2871 124.561-17.334 121.143-17.334L28.1738-17.334C24.8047-17.334 22.8516-19.2871 22.8516-22.8516L22.8516-47.6074C22.8516-51.1719 24.8047-53.0762 28.2227-53.0762L28.3691-53.0762L28.3691-30.3711C28.3691-29.0527 29.4434-28.0762 30.7129-28.125C32.0801-28.125 33.0078-29.1016 33.0078-30.4199L33.0566-53.0762L37.1582-53.0762L37.1582-38.1348C37.1582-36.8164 38.2324-35.8398 39.5508-35.8887C40.918-35.8887 41.7969-36.8652 41.7969-38.1836L41.8457-53.0762L45.9473-53.0762L45.9473-38.1348C45.9473-36.8164 47.0215-35.8398 48.291-35.8887C49.6582-35.8887 50.5859-36.8652 50.5859-38.1836L50.6348-53.0762L54.7363-53.0762L54.7363-38.1348C54.7363-36.8164 55.7617-35.8398 57.0801-35.8887C58.4473-35.8887 59.375-36.8652 59.375-38.1836L59.375-53.0762L63.5254-53.0762L63.5254-38.1348C63.5254-36.8164 64.5996-35.8398 65.8691-35.8887C67.2363-35.8887 68.1641-36.8652 68.1641-38.1836L68.1641-53.0762L72.3145-53.0762L72.3145-30.3711C72.3145-29.0527 73.3887-28.0762 74.6582-28.125C76.0254-28.125 76.9531-29.1016 76.9531-30.4199L77.002-53.0762L81.1035-53.0762L81.1035-38.1348C81.1035-36.8164 82.1777-35.8398 83.4473-35.8887C84.8145-35.8887 85.7422-36.8652 85.7422-38.1836L85.7422-53.0762L89.8926-53.0762L89.8926-38.1348C89.8926-36.8164 90.9668-35.8398 92.2363-35.8887C93.6035-35.8887 94.5312-36.8652 94.5312-38.1836L94.5801-53.0762L98.6816-53.0762L98.6816-38.1348C98.6816-36.8164 99.7559-35.8398 101.025-35.8887C102.393-35.8887 103.32-36.8652 103.32-38.1836L103.32-53.0762L107.471-53.0762L107.471-38.1348C107.471-36.8164 108.545-35.8398 109.814-35.8887C111.182-35.8887 112.109-36.8652 112.109-38.1836L112.158-53.0762L116.26-53.0762L116.26-30.3711C116.26-29.0527 117.334-28.0762 118.604-28.125C119.971-28.125 120.898-29.1016 120.898-30.4199L120.947-53.0762L121.24-53.0762C124.561-53.0762 126.562-51.1719 126.562-47.6074Z"/>
  </g>
  <g id="Medium-M" transform="matrix(1 0 0 1 1672.95 1126)">
   <path d="M134.766-48.9258C134.766-57.8613 129.834-62.6953 120.85-62.6953L26.3184-62.6953C17.2852-62.6953 12.4512-57.8613 12.4512-48.9258L12.5-21.5332C12.5-12.5977 17.334-7.76367 26.3672-7.76367L120.898-7.76367C129.883-7.76367 134.766-12.5977 134.766-21.5332ZM125.439-47.4121L125.439-23.0469C125.439-19.1406 123.291-17.041 119.531-17.041L27.5879-17.041C23.9258-17.041 21.7773-19.1406 21.7773-23.0469L21.7773-47.4121C21.7773-51.3184 23.9258-53.418 27.6367-53.418L27.8809-53.418L27.8809-30.2734C27.8809-29.0527 28.8574-28.125 30.0781-28.125C31.3477-28.1738 32.2266-29.0527 32.2266-30.3223L32.2266-53.418L36.5723-53.418L36.5723-38.3789C36.5723-37.1582 37.5977-36.2305 38.7695-36.2793C40.0879-36.2793 40.918-37.1582 40.918-38.4277L40.9668-53.418L45.2637-53.418L45.2637-38.3789C45.2637-37.1582 46.2891-36.2305 47.4609-36.2793C48.7793-36.2793 49.6094-37.1582 49.6094-38.4277L49.6582-53.418L53.9551-53.418L53.9551-38.3789C53.9551-37.1582 54.9805-36.2305 56.1523-36.2793C57.4219-36.2793 58.3008-37.1582 58.3008-38.4277L58.3496-53.418L62.6953-53.418L62.6953-38.3789C62.6953-37.1582 63.6719-36.2305 64.8926-36.2793C66.1621-36.2793 67.041-37.1582 67.041-38.4277L67.0898-53.418L71.4355-53.418L71.4355-30.2734C71.4355-29.0527 72.4121-28.125 73.6328-28.125C74.9023-28.1738 75.7812-29.0527 75.7812-30.3223L75.8301-53.418L80.127-53.418L80.127-38.3789C80.127-37.1582 81.1035-36.2305 82.3242-36.2793C83.5938-36.2793 84.4727-37.1582 84.4727-38.4277L84.4727-53.418L88.8672-53.418L88.8672-38.3789C88.8672-37.1582 89.8438-36.2305 91.0156-36.2793C92.334-36.2793 93.1641-37.1582 93.1641-38.4277L93.2129-53.418L97.5098-53.418L97.5098-38.3789C97.5098-37.1582 98.5352-36.2305 99.707-36.2793C101.025-36.2793 101.855-37.1582 101.855-38.4277L101.904-53.418L106.25-53.418L106.25-38.3789C106.25-37.1582 107.227-36.2305 108.447-36.2793C109.717-36.2793 110.596-37.1582 110.596-38.4277L110.645-53.418L114.99-53.418L114.99-30.2734C114.99-29.0527 115.967-28.125 117.139-28.125C118.457-28.1738 119.336-29.0527 119.336-30.3223L119.336-53.418L119.58-53.418C123.291-53.418 125.439-51.3184 125.439-47.4121Z"/>
  </g>
  <g id="Regular-M" transform="matrix(1 0 0 1 1377.65 1126)">
   <path d="M131.934-48.5352C131.934-57.1777 127.393-61.6699 118.652-61.6699L25.6836-61.6699C16.9434-61.6699 12.4512-57.1777 12.4512-48.5352L12.5-21.875C12.5-13.2324 16.9922-8.74023 25.7324-8.74023L118.701-8.74023C127.441-8.74023 131.934-13.2324 131.934-21.875ZM124.023-47.1191L124.023-23.291C124.023-18.8965 121.68-16.6016 117.432-16.6016L26.9043-16.6016C22.7539-16.6016 20.3613-18.8965 20.3613-23.291L20.3613-47.1191C20.3613-51.5137 22.7539-53.8086 26.9531-53.8086L27.1973-53.8086L27.1973-30.127C27.1973-29.0039 28.0762-28.1738 29.1992-28.2227C30.3711-28.2715 31.1523-29.0527 31.1523-30.1758L31.2012-53.8086L35.8398-53.8086L35.8398-38.7207C35.8398-37.5488 36.7188-36.7188 37.793-36.7676C39.0137-36.8164 39.7949-37.5977 39.7949-38.7695L39.8438-53.8086L44.3848-53.8086L44.3848-38.7207C44.3848-37.5488 45.3125-36.7188 46.3867-36.7676C47.5586-36.8164 48.3887-37.5977 48.3887-38.7695L48.3887-53.8086L52.9785-53.8086L52.9785-38.7207C52.9785-37.5488 53.8574-36.7188 54.9805-36.7676C56.1523-36.8164 56.9336-37.5977 56.9336-38.7695L56.9824-53.8086L61.6211-53.8086L61.6211-38.7207C61.6211-37.5488 62.5-36.7188 63.5742-36.7676C64.7949-36.8164 65.5762-37.5977 65.5762-38.7695L65.625-53.8086L70.2637-53.8086L70.2637-30.127C70.2637-29.0039 71.1426-28.1738 72.2168-28.2227C73.4375-28.2715 74.2188-29.0527 74.2188-30.1758L74.2676-53.8086L78.8574-53.8086L78.8574-38.7207C78.8574-37.5488 79.7363-36.7188 80.8105-36.7676C81.9824-36.8164 82.8125-37.5977 82.8125-38.7695L82.8125-53.8086L87.4512-53.8086L87.4512-38.7207C87.4512-37.5488 88.3301-36.7188 89.4531-36.7676C90.625-36.8164 91.4062-37.5977 91.4062-38.7695L91.4551-53.8086L96.0449-53.8086L96.0449-38.7207C96.0449-37.5488 96.9238-36.7188 97.998-36.7676C99.2188-36.8164 100-37.5977 100-38.7695L100.049-53.8086L104.688-53.8086L104.688-38.7207C104.688-37.5488 105.566-36.7188 106.641-36.7676C107.812-36.8164 108.643-37.5977 108.643-38.7695L108.691-53.8086L113.281-53.8086L113.281-30.127C113.281-29.0039 114.16-28.1738 115.283-28.2227C116.455-28.2715 117.236-29.0527 117.236-30.1758L117.285-53.8086L117.48-53.8086C121.68-53.8086 124.023-51.5137 124.023-47.1191Z"/>
  </g>
  <g id="Light-M" transform="matrix(1 0 0 1 1082.06 1126)">
   <path d="M129.688-47.9004C129.688-56.0547 125.244-60.4492 117.041-60.4492L25.0488-60.4492C16.8457-60.4492 12.4512-56.0547 12.4512-47.9004L12.5-22.5586C12.5-14.4043 16.8945-10.0098 25.0977-10.0098L117.09-10.0098C125.293-10.0098 129.688-14.4043 129.688-22.5586ZM123.584-46.9727L123.584-23.4863C123.584-18.6523 120.898-16.0156 116.211-16.0156L25.8789-16.0156C21.1914-16.0156 18.5059-18.6523 18.5059-23.4863L18.5059-46.9727C18.5059-51.8066 21.1914-54.3945 25.9277-54.3945L26.123-54.3945L26.123-30.0781C26.123-29.0039 26.8555-28.3203 27.832-28.3203C28.8574-28.3691 29.5898-29.0527 29.5898-30.0781L29.5898-54.3945L34.7656-54.3945L34.7656-38.5742C34.7656-37.5488 35.5469-36.8164 36.5234-36.8652C37.5488-36.8652 38.2324-37.5488 38.2324-38.623L38.2812-54.3945L43.4082-54.3945L43.4082-38.5742C43.4082-37.5488 44.1406-36.8164 45.1172-36.8652C46.1914-36.8652 46.875-37.5488 46.875-38.623L46.875-54.3945L52.0508-54.3945L52.0508-38.5742C52.0508-37.5488 52.7832-36.8164 53.7598-36.8652C54.7852-36.8652 55.4688-37.5488 55.4688-38.623L55.5176-54.3945L60.6934-54.3945L60.6934-38.5742C60.6934-37.5488 61.4258-36.8164 62.4023-36.8652C63.4766-36.8652 64.1602-37.5488 64.1602-38.623L64.1602-54.3945L69.3848-54.3945L69.3848-30.0781C69.3848-29.0039 70.1172-28.3203 71.0938-28.3203C72.168-28.3691 72.8516-29.0527 72.8516-30.0781L72.8516-54.3945L78.0273-54.3945L78.0273-38.5742C78.0273-37.5488 78.7598-36.8164 79.7363-36.8652C80.7617-36.8652 81.4453-37.5488 81.4453-38.623L81.4941-54.3945L86.6699-54.3945L86.6699-38.5742C86.6699-37.5488 87.4023-36.8164 88.3789-36.8652C89.4531-36.8652 90.1367-37.5488 90.1367-38.623L90.1367-54.3945L95.3125-54.3945L95.3125-38.5742C95.3125-37.5488 96.0449-36.8164 97.0215-36.8652C98.0469-36.8652 98.7793-37.5488 98.7793-38.623L98.7793-54.3945L103.955-54.3945L103.955-38.5742C103.955-37.5488 104.736-36.8164 105.713-36.8652C106.738-36.8652 107.422-37.5488 107.422-38.623L107.471-54.3945L112.598-54.3945L112.598-30.0781C112.598-29.0039 113.33-28.3203 114.307-28.3203C115.381-28.3691 116.064-29.0527 116.064-30.0781L116.064-54.3945L116.26-54.3945C120.898-54.3945 123.584-51.8066 123.584-46.9727Z"/>
  </g>
  <g id="Thin-M" transform="matrix(1 0 0 1 786.867 1126)">
   <path d="M126.66-47.1191C126.66-54.541 122.363-58.8379 114.941-58.8379L24.2188-58.8379C16.748-58.8379 12.4512-54.541 12.4512-47.1191L12.4512-23.3887C12.4512-15.9668 16.748-11.6699 24.2188-11.6699L114.941-11.6699C122.363-11.6699 126.66-15.9668 126.66-23.3887ZM123.047-46.7285L123.047-23.7793C123.047-18.3594 119.922-15.2832 114.551-15.2832L24.5605-15.2832C19.1895-15.2832 16.1133-18.3594 16.1133-23.7793L16.1133-46.7285C16.1133-52.1484 19.1895-55.2246 24.5605-55.2246L24.6582-55.2246L24.6582-29.9316C24.6582-29.0527 25.2441-28.5156 26.0742-28.5156C26.9043-28.5156 27.4902-29.1016 27.4902-29.9805L27.4902-55.2246L33.3496-55.2246L33.3496-38.3789C33.3496-37.5 33.9355-36.9629 34.7656-36.9629C35.5957-36.9629 36.1816-37.5488 36.1816-38.4277L36.1816-55.2246L42.041-55.2246L42.041-38.3789C42.041-37.5 42.627-36.9629 43.457-36.9629C44.2871-36.9629 44.873-37.5488 44.873-38.4277L44.873-55.2246L50.7812-55.2246L50.7812-38.3789C50.7812-37.5 51.3184-36.9629 52.1484-36.9629C52.9785-36.9629 53.5645-37.5488 53.5645-38.4277L53.5645-55.2246L59.4727-55.2246L59.4727-38.3789C59.4727-37.5 60.0586-36.9629 60.8887-36.9629C61.7188-36.9629 62.2559-37.5488 62.2559-38.4277L62.2559-55.2246L68.2129-55.2246L68.2129-29.9316C68.2129-29.0527 68.7988-28.5156 69.6289-28.5156C70.459-28.5156 71.0449-29.1016 71.0449-29.9805L71.0449-55.2246L76.9043-55.2246L76.9043-38.3789C76.9043-37.5 77.4902-36.9629 78.3203-36.9629C79.1504-36.9629 79.7363-37.5488 79.7363-38.4277L79.7363-55.2246L85.5957-55.2246L85.5957-38.3789C85.5957-37.5 86.1816-36.9629 87.0117-36.9629C87.8418-36.9629 88.4277-37.5488 88.4277-38.4277L88.4277-55.2246L94.3359-55.2246L94.3359-38.3789C94.3359-37.5 94.873-36.9629 95.7031-36.9629C96.5332-36.9629 97.1191-37.5488 97.1191-38.4277L97.1191-55.2246L103.027-55.2246L103.027-38.3789C103.027-37.5 103.613-36.9629 104.443-36.9629C105.273-36.9629 105.811-37.5488 105.811-38.4277L105.811-55.2246L111.67-55.2246L111.67-29.9316C111.67-29.0527 112.256-28.5156 113.086-28.5156C113.916-28.5156 114.453-29.1016 114.453-29.9805L114.502-55.2246L114.6-55.2246C119.922-55.2246 123.047-52.1484 123.047-46.7285Z"/>
  </g>
  <g id="Ultralight-M" transform="matrix(1 0 0 1 490.912 1126)">
   <path d="M125.146-46.6797C125.146-53.7598 120.898-58.0078 113.818-58.0078L23.7793-58.0078C16.6992-58.0078 12.4512-53.7598 12.4512-46.6797L12.4512-23.8281C12.4512-16.748 16.6992-12.5 23.7793-12.5L113.818-12.5C120.898-12.5 125.146-16.748 125.146-23.8281ZM122.754-46.582L122.754-23.9258C122.754-18.1641 119.434-14.8926 113.721-14.8926L23.877-14.8926C18.1641-14.8926 14.8438-18.1641 14.8438-23.9258L14.8438-46.582C14.8438-52.3438 18.1641-55.6152 23.877-55.6152L23.9258-55.6152L23.9258-29.8828C23.9258-29.1016 24.4141-28.6133 25.1465-28.6133C25.8789-28.6133 26.3672-29.1016 26.3672-29.8828L26.3672-55.6152L32.666-55.6152L32.666-38.3301C32.666-37.5 33.1543-37.0117 33.8867-37.0117C34.6191-37.0117 35.1074-37.5 35.1074-38.3301L35.1074-55.6152L41.3574-55.6152L41.3574-38.3301C41.3574-37.5 41.8945-37.0117 42.627-37.0117C43.3594-37.0117 43.8477-37.5 43.8477-38.3301L43.8477-55.6152L50.0977-55.6152L50.0977-38.3301C50.0977-37.5 50.5859-37.0117 51.3184-37.0117C52.0996-37.0117 52.5879-37.5 52.5879-38.3301L52.5879-55.6152L58.8379-55.6152L58.8379-38.3301C58.8379-37.5 59.3262-37.0117 60.0586-37.0117C60.791-37.0117 61.2793-37.5 61.2793-38.3301L61.2793-55.6152L67.627-55.6152L67.627-29.8828C67.627-29.1016 68.1152-28.6133 68.8477-28.6133C69.5801-28.6133 70.0684-29.1016 70.0684-29.8828L70.0684-55.6152L76.3672-55.6152L76.3672-38.3301C76.3672-37.5 76.8555-37.0117 77.5879-37.0117C78.3203-37.0117 78.8086-37.5 78.8086-38.3301L78.8086-55.6152L85.0586-55.6152L85.0586-38.3301C85.0586-37.5 85.5957-37.0117 86.3281-37.0117C87.0605-37.0117 87.5488-37.5 87.5488-38.3301L87.5488-55.6152L93.7988-55.6152L93.7988-38.3301C93.7988-37.5 94.2871-37.0117 95.0195-37.0117C95.8008-37.0117 96.2891-37.5 96.2891-38.3301L96.2891-55.6152L102.539-55.6152L102.539-38.3301C102.539-37.5 103.027-37.0117 103.76-37.0117C104.492-37.0117 104.98-37.5 104.98-38.3301L104.98-55.6152L111.182-55.6152L111.182-29.8828C111.182-29.1016 111.67-28.6133 112.451-28.6133C113.184-28.6133 113.672-29.1016 113.672-29.8828L113.672-55.6152L113.721-55.6152C119.434-55.6152 122.754-52.3438 122.754-46.582Z"/>
  </g>
  <g id="Black-S" transform="matrix(1 0 0 1 2870.83 696)">
   <path d="M115.381-47.3633C115.381-55.2246 110.205-60.2051 102.295-60.2051L22.8027-60.2051C14.8438-60.2051 9.76562-55.2246 9.76562-47.3633L9.76562-23.1934C9.76562-15.332 14.8926-10.2539 22.8516-10.2539L102.344-10.2539C110.254-10.2539 115.381-15.332 115.381-23.1934ZM103.223-45.7031L103.174-24.8047C103.174-23.3887 102.295-22.4609 100.977-22.4609L24.1211-22.4609C22.8027-22.4609 21.9238-23.3887 21.9238-24.8047L21.9238-45.7031C21.9238-47.1191 22.8516-48.0469 24.1699-48.0469L24.1699-31.8359C24.1699-30.5176 25.293-29.4922 26.6113-29.4922C27.9785-29.4922 28.9062-30.5176 28.9062-31.8848L28.9062-48.0469L31.3477-48.0469L31.3477-36.6211C31.3477-35.3027 32.4707-34.2773 33.7891-34.2773C35.1562-34.2773 36.084-35.3027 36.084-36.6699L36.084-48.0469L38.5254-48.0469L38.5254-36.6211C38.5254-35.3027 39.6484-34.2773 40.9668-34.2773C42.334-34.2773 43.2617-35.3027 43.2617-36.6699L43.2617-48.0469L45.7031-48.0469L45.7031-36.6211C45.7031-35.3027 46.8262-34.2773 48.1445-34.2773C49.5117-34.2773 50.4395-35.3027 50.4395-36.6699L50.4395-48.0469L52.8809-48.0469L52.8809-36.6211C52.8809-35.3027 54.0039-34.2773 55.3223-34.2773C56.6895-34.2773 57.6172-35.3027 57.6172-36.6699L57.6172-48.0469L60.0586-48.0469L60.0586-31.8359C60.0586-30.5176 61.1816-29.4922 62.5-29.4922C63.8672-29.4922 64.7949-30.5176 64.7949-31.8848L64.7949-48.0469L67.2363-48.0469L67.2363-36.6211C67.2363-35.3027 68.3594-34.2773 69.6777-34.2773C71.0449-34.2773 71.9727-35.3027 71.9727-36.6699L71.9727-48.0469L74.4141-48.0469L74.4141-36.6211C74.4141-35.3027 75.5371-34.2773 76.8555-34.2773C78.2227-34.2773 79.1504-35.3027 79.1504-36.6699L79.1504-48.0469L81.5918-48.0469L81.5918-36.6211C81.5918-35.3027 82.7148-34.2773 84.0332-34.2773C85.4004-34.2773 86.3281-35.3027 86.3281-36.6699L86.3281-48.0469L88.7695-48.0469L88.7695-36.6211C88.7695-35.3027 89.8926-34.2773 91.2109-34.2773C92.5781-34.2773 93.5059-35.3027 93.5059-36.6699L93.5059-48.0469L95.9473-48.0469L95.9473-31.8359C95.9473-30.5176 97.0703-29.4922 98.3887-29.4922C99.7559-29.4922 100.684-30.5176 100.684-31.8848L100.684-48.0469L101.025-48.0469C102.344-48.0469 103.223-47.1191 103.223-45.7031Z"/>
  </g>
  <g id="Heavy-S" transform="matrix(1 0 0 1 2575.41 696)">
   <path d="M112.793-47.0215C112.793-54.6875 108.008-59.3262 100.293-59.3262L22.2656-59.3262C14.502-59.3262 9.76562-54.6875 9.76562-47.0215L9.76562-23.4863C9.76562-15.8203 14.5508-11.084 22.3145-11.084L100.342-11.084C108.057-11.084 112.793-15.8203 112.793-23.4863ZM101.855-45.459L101.807-25.0488C101.807-23.1934 100.732-22.0703 99.0234-22.0703L23.5352-22.0703C21.8262-22.0703 20.7031-23.1934 20.7031-25.0488L20.7031-45.459C20.7031-47.3145 21.8262-48.3887 23.584-48.3887L23.6328-48.3887L23.6328-31.6895C23.6328-30.4688 24.6582-29.541 25.8789-29.541C27.1484-29.541 28.0273-30.4688 28.0273-31.7383L28.0273-48.3887L30.7129-48.3887L30.7129-36.9629C30.7129-35.6934 31.7383-34.7656 32.959-34.7656C34.2285-34.7656 35.1074-35.7422 35.1074-37.0117L35.1074-48.3887L37.7441-48.3887L37.7441-36.9629C37.7441-35.6934 38.8184-34.7656 40.0391-34.7656C41.3086-34.7656 42.1875-35.7422 42.1875-37.0117L42.1875-48.3887L44.8242-48.3887L44.8242-36.9629C44.8242-35.6934 45.8496-34.7656 47.0703-34.7656C48.3887-34.7656 49.2188-35.7422 49.2188-37.0117L49.2188-48.3887L51.9043-48.3887L51.9043-36.9629C51.9043-35.6934 52.9297-34.7656 54.1504-34.7656C55.4199-34.7656 56.2988-35.7422 56.2988-37.0117L56.2988-48.3887L58.9844-48.3887L58.9844-31.6895C58.9844-30.4688 60.0098-29.541 61.2305-29.541C62.5-29.541 63.3789-30.4688 63.3789-31.7383L63.3789-48.3887L66.0645-48.3887L66.0645-36.9629C66.0645-35.6934 67.0898-34.7656 68.3105-34.7656C69.5801-34.7656 70.459-35.7422 70.459-37.0117L70.459-48.3887L73.0957-48.3887L73.0957-36.9629C73.0957-35.6934 74.1699-34.7656 75.3906-34.7656C76.6602-34.7656 77.5391-35.7422 77.5391-37.0117L77.5391-48.3887L80.1758-48.3887L80.1758-36.9629C80.1758-35.6934 81.2012-34.7656 82.4219-34.7656C83.7402-34.7656 84.5703-35.7422 84.5703-37.0117L84.6191-48.3887L87.2559-48.3887L87.2559-36.9629C87.2559-35.6934 88.2812-34.7656 89.502-34.7656C90.8203-34.7656 91.6504-35.7422 91.6504-37.0117L91.6504-48.3887L94.3359-48.3887L94.3359-31.6895C94.3359-30.4688 95.3613-29.541 96.582-29.541C97.8516-29.541 98.7305-30.4688 98.7305-31.7383L98.7305-48.3887L99.0723-48.3887C100.781-48.3887 101.855-47.3145 101.855-45.459Z"/>
  </g>
  <g id="Bold-S" transform="matrix(1 0 0 1 2280.14 696)">
   <path d="M109.912-46.6797C109.912-54.1016 105.566-58.3984 97.998-58.3984L21.6309-58.3984C14.0625-58.3984 9.76562-54.1016 9.76562-46.6797L9.76562-23.8281C9.76562-16.3574 14.1113-12.0605 21.6797-12.0605L98.0469-12.0605C105.615-12.0605 109.912-16.3574 109.912-23.8281ZM100.293-45.166L100.293-25.293C100.293-22.998 98.9746-21.6797 96.8262-21.6797L22.8516-21.6797C20.7031-21.6797 19.3848-22.998 19.3848-25.293L19.3848-45.166C19.3848-47.4609 20.7031-48.7793 22.9004-48.7793L22.998-48.7793L22.998-31.543C22.998-30.4199 23.9746-29.541 25.0488-29.5898C26.2695-29.5898 27.0508-30.4688 27.0508-31.5918L27.0508-48.7793L29.9805-48.7793L29.9805-37.3047C29.9805-36.1816 30.9082-35.3027 32.0312-35.3516C33.2031-35.3516 34.0332-36.1816 34.0332-37.3535L34.0332-48.7793L36.9141-48.7793L36.9141-37.3047C36.9141-36.1816 37.8418-35.3027 38.9648-35.3516C40.1367-35.3516 40.9668-36.1816 40.9668-37.3535L40.9668-48.7793L43.8477-48.7793L43.8477-37.3047C43.8477-36.1816 44.7754-35.3027 45.8984-35.3516C47.0703-35.3516 47.9004-36.1816 47.9004-37.3535L47.9004-48.7793L50.8301-48.7793L50.8301-37.3047C50.8301-36.1816 51.7578-35.3027 52.8809-35.3516C54.0527-35.3516 54.834-36.1816 54.834-37.3535L54.8828-48.7793L57.7637-48.7793L57.7637-31.543C57.7637-30.4199 58.6914-29.541 59.8145-29.5898C60.9863-29.5898 61.8164-30.4688 61.8164-31.5918L61.8164-48.7793L64.6973-48.7793L64.6973-37.3047C64.6973-36.1816 65.625-35.3027 66.748-35.3516C67.9688-35.3516 68.75-36.1816 68.75-37.3535L68.75-48.7793L71.6797-48.7793L71.6797-37.3047C71.6797-36.1816 72.6074-35.3027 73.7305-35.3516C74.9023-35.3516 75.6836-36.1816 75.6836-37.3535L75.7324-48.7793L78.6133-48.7793L78.6133-37.3047C78.6133-36.1816 79.541-35.3027 80.6641-35.3516C81.8359-35.3516 82.666-36.1816 82.666-37.3535L82.666-48.7793L85.5469-48.7793L85.5469-37.3047C85.5469-36.1816 86.5234-35.3027 87.5977-35.3516C88.8184-35.3516 89.5996-36.1816 89.5996-37.3535L89.5996-48.7793L92.5293-48.7793L92.5293-31.543C92.5293-30.4199 93.457-29.541 94.5801-29.5898C95.752-29.5898 96.582-30.4688 96.582-31.5918L96.582-48.7793L96.875-48.7793C99.0234-48.7793 100.293-47.4609 100.293-45.166Z"/>
  </g>
  <g id="Semibold-S" transform="matrix(1 0 0 1 1984.4 696)">
   <path d="M107.959-46.3867C107.959-53.7109 103.857-57.7148 96.4844-57.7148L21.1914-57.7148C13.8184-57.7148 9.76562-53.7109 9.76562-46.3867L9.81445-24.0723C9.81445-16.748 13.8672-12.6953 21.2402-12.6953L96.5332-12.6953C103.906-12.6953 107.959-16.748 107.959-24.0723ZM99.2676-44.9707L99.2188-25.4395C99.2188-22.8516 97.8027-21.3867 95.2637-21.3867L22.3633-21.3867C19.9219-21.3867 18.457-22.8516 18.457-25.4395L18.457-44.9707C18.457-47.6074 19.9219-49.0234 22.4121-49.0234L22.6074-49.0234L22.6074-31.4453C22.6074-30.3711 23.4863-29.5898 24.5117-29.5898C25.6348-29.6387 26.3672-30.4199 26.3672-31.4941L26.416-49.0234L29.4922-49.0234L29.4922-37.5488C29.4922-36.5234 30.3223-35.6934 31.3965-35.7422C32.5195-35.7422 33.252-36.5234 33.252-37.5977L33.3008-49.0234L36.3281-49.0234L36.3281-37.5488C36.3281-36.5234 37.207-35.6934 38.2324-35.7422C39.3555-35.7422 40.0879-36.5234 40.0879-37.5977L40.1367-49.0234L43.1641-49.0234L43.1641-37.5488C43.1641-36.5234 44.043-35.6934 45.0684-35.7422C46.1914-35.7422 46.9727-36.5234 46.9727-37.5977L46.9727-49.0234L50.0488-49.0234L50.0488-37.5488C50.0488-36.5234 50.9277-35.6934 51.9531-35.7422C53.0762-35.7422 53.8574-36.5234 53.8574-37.5977L53.8574-49.0234L56.9336-49.0234L56.9336-31.4453C56.9336-30.3711 57.8125-29.5898 58.8379-29.5898C59.9609-29.6387 60.7422-30.4199 60.7422-31.4941L60.7422-49.0234L63.7695-49.0234L63.7695-37.5488C63.7695-36.5234 64.6484-35.6934 65.7227-35.7422C66.7969-35.7422 67.5781-36.5234 67.5781-37.5977L67.5781-49.0234L70.6543-49.0234L70.6543-37.5488C70.6543-36.5234 71.5332-35.6934 72.5586-35.7422C73.6816-35.7422 74.4629-36.5234 74.4629-37.5977L74.4629-49.0234L77.5391-49.0234L77.5391-37.5488C77.5391-36.5234 78.3691-35.6934 79.4434-35.7422C80.5664-35.7422 81.2988-36.5234 81.2988-37.5977L81.3477-49.0234L84.375-49.0234L84.375-37.5488C84.375-36.5234 85.2539-35.6934 86.3281-35.7422C87.4512-35.7422 88.1836-36.5234 88.1836-37.5977L88.2324-49.0234L91.2598-49.0234L91.2598-31.4453C91.2598-30.3711 92.1387-29.5898 93.2129-29.5898C94.3359-29.6387 95.0684-30.4199 95.0684-31.4941L95.0684-49.0234L95.3125-49.0234C97.8027-49.0234 99.2676-47.6074 99.2676-44.9707Z"/>
  </g>
  <g id="Medium-S" transform="matrix(1 0 0 1 1688.45 696)">
   <path d="M106.445-46.1914C106.445-53.418 102.539-57.2266 95.2637-57.2266L20.8984-57.2266C13.5742-57.2266 9.76562-53.418 9.76562-46.1914L9.81445-24.2188C9.81445-17.041 13.623-13.2324 20.9473-13.2324L95.3125-13.2324C102.588-13.2324 106.445-17.041 106.445-24.2188ZM98.4375-44.8242L98.4375-25.5859C98.4375-22.7051 96.875-21.1914 94.1406-21.1914L22.0215-21.1914C19.3359-21.1914 17.7734-22.7051 17.7734-25.5859L17.7734-44.8242C17.7734-47.7051 19.3359-49.2676 22.0703-49.2676L22.2656-49.2676L22.2656-31.3965C22.2656-30.3711 23.0957-29.5898 24.0723-29.6387C25.1465-29.6875 25.8789-30.4199 25.8789-31.4453L25.8789-49.2676L29.1016-49.2676L29.1016-37.7441C29.1016-36.7188 29.9316-35.9863 30.9082-35.9863C31.9824-36.0352 32.666-36.7676 32.666-37.793L32.7148-49.2676L35.8887-49.2676L35.8887-37.7441C35.8887-36.7188 36.7188-35.9863 37.6953-35.9863C38.7695-36.0352 39.4531-36.7676 39.4531-37.793L39.502-49.2676L42.6758-49.2676L42.6758-37.7441C42.6758-36.7188 43.5059-35.9863 44.4824-35.9863C45.5566-36.0352 46.2402-36.7676 46.2402-37.793L46.2891-49.2676L49.4629-49.2676L49.4629-37.7441C49.4629-36.7188 50.293-35.9863 51.2695-35.9863C52.3438-36.0352 53.0762-36.7676 53.0762-37.793L53.125-49.2676L56.2988-49.2676L56.2988-31.3965C56.2988-30.3711 57.1289-29.5898 58.1055-29.6387C59.1797-29.6875 59.9121-30.4199 59.9121-31.4453L59.9121-49.2676L63.0859-49.2676L63.0859-37.7441C63.0859-36.7188 63.916-35.9863 64.8926-35.9863C65.9668-36.0352 66.6992-36.7676 66.6992-37.793L66.6992-49.2676L69.9219-49.2676L69.9219-37.7441C69.9219-36.7188 70.752-35.9863 71.7285-35.9863C72.8027-36.0352 73.4863-36.7676 73.4863-37.793L73.5352-49.2676L76.709-49.2676L76.709-37.7441C76.709-36.7188 77.5391-35.9863 78.5156-35.9863C79.5898-36.0352 80.2734-36.7676 80.2734-37.793L80.3223-49.2676L83.4961-49.2676L83.4961-37.7441C83.4961-36.7188 84.3262-35.9863 85.3027-35.9863C86.377-36.0352 87.1094-36.7676 87.1094-37.793L87.1582-49.2676L90.332-49.2676L90.332-31.3965C90.332-30.3711 91.1621-29.5898 92.1387-29.6387C93.2129-29.6875 93.9453-30.4199 93.9453-31.4453L93.9453-49.2676L94.1895-49.2676C96.875-49.2676 98.4375-47.7051 98.4375-44.8242Z"/>
  </g>
  <g id="Regular-S" transform="matrix(1 0 0 1 1392.72 696)">
   <path d="M104.492-45.9473C104.492-52.9785 100.879-56.543 93.75-56.543L20.459-56.543C13.3301-56.543 9.76562-52.9785 9.76562-45.9473L9.81445-24.4629C9.81445-17.4316 13.3789-13.8672 20.5078-13.8672L93.7988-13.8672C100.928-13.8672 104.492-17.4316 104.492-24.4629ZM97.4121-44.6289L97.4121-25.7812C97.4121-22.5586 95.7031-20.8984 92.627-20.8984L21.582-20.8984C18.5547-20.8984 16.8457-22.5586 16.8457-25.7812L16.8457-44.6289C16.8457-47.8516 18.5547-49.5117 21.6309-49.5117L21.875-49.5117L21.875-31.2988C21.875-30.3223 22.6074-29.5898 23.5352-29.6387C24.5117-29.6875 25.1953-30.3711 25.1953-31.3477L25.2441-49.5117L28.6133-49.5117L28.6133-38.0371C28.6133-37.0605 29.3457-36.3281 30.2734-36.377C31.25-36.4258 31.9336-37.1094 31.9336-38.0859L31.9824-49.5117L35.3027-49.5117L35.3027-38.0371C35.3027-37.0605 36.0352-36.3281 36.9629-36.377C37.9883-36.4258 38.623-37.1094 38.623-38.0859L38.6719-49.5117L41.9922-49.5117L41.9922-38.0371C41.9922-37.0605 42.7734-36.3281 43.6523-36.377C44.6777-36.4258 45.3125-37.1094 45.3125-38.0859L45.3613-49.5117L48.7305-49.5117L48.7305-38.0371C48.7305-37.0605 49.5117-36.3281 50.3906-36.377C51.416-36.4258 52.0508-37.1094 52.0508-38.0859L52.0996-49.5117L55.4688-49.5117L55.4688-31.2988C55.4688-30.3223 56.25-29.5898 57.1289-29.6387C58.1543-29.6875 58.8379-30.3711 58.8379-31.3477L58.8379-49.5117L62.1582-49.5117L62.1582-38.0371C62.1582-37.0605 62.9395-36.3281 63.8672-36.377C64.8438-36.4258 65.5273-37.1094 65.5273-38.0859L65.5762-49.5117L68.8965-49.5117L68.8965-38.0371C68.8965-37.0605 69.6777-36.3281 70.6055-36.377C71.582-36.4258 72.2656-37.1094 72.2656-38.0859L72.3145-49.5117L75.6348-49.5117L75.6348-38.0371C75.6348-37.0605 76.3672-36.3281 77.2949-36.377C78.2715-36.4258 78.9551-37.1094 78.9551-38.0859L79.0039-49.5117L82.373-49.5117L82.373-38.0371C82.373-37.0605 83.1055-36.3281 84.0332-36.377C85.0098-36.4258 85.6934-37.1094 85.6934-38.0859L85.7422-49.5117L89.1113-49.5117L89.1113-31.2988C89.1113-30.3223 89.8438-29.5898 90.7715-29.6387C91.7969-29.6875 92.4316-30.3711 92.4316-31.3477L92.4805-49.5117L92.6758-49.5117C95.7031-49.5117 97.4121-47.8516 97.4121-44.6289Z"/>
  </g>
  <g id="Light-S" transform="matrix(1 0 0 1 1097.01 696)">
   <path d="M102.49-45.4102C102.49-52.002 98.9746-55.4688 92.334-55.4688L19.873-55.4688C13.2324-55.4688 9.76562-52.002 9.76562-45.4102L9.81445-25.0488C9.81445-18.457 13.2812-14.9902 19.9219-14.9902L92.334-14.9902C98.9746-14.9902 102.49-18.457 102.49-25.0488ZM97.0215-44.4824L97.0215-25.9766C97.0215-22.3633 95.0195-20.4102 91.5527-20.4102L20.6543-20.4102C17.2363-20.4102 15.2344-22.3633 15.2344-25.9766L15.2344-44.4824C15.2344-48.0957 17.2363-50.0488 20.7031-50.0488L20.8984-50.0488L20.8984-31.2012C20.8984-30.3711 21.5332-29.7363 22.3145-29.7852C23.1934-29.7852 23.7793-30.3711 23.7793-31.25L23.8281-50.0488L27.6367-50.0488L27.6367-37.8906C27.6367-37.0605 28.3203-36.4258 29.1016-36.4746C29.9805-36.4746 30.5664-37.0605 30.5664-37.9395L30.5664-50.0488L34.375-50.0488L34.375-37.8906C34.375-37.0605 35.0586-36.4258 35.8398-36.4746C36.7188-36.4746 37.3047-37.0605 37.3047-37.9395L37.3047-50.0488L41.1621-50.0488L41.1621-37.8906C41.1621-37.0605 41.7969-36.4258 42.5781-36.4746C43.457-36.4746 44.043-37.0605 44.043-37.9395L44.0918-50.0488L47.9004-50.0488L47.9004-37.8906C47.9004-37.0605 48.5352-36.4258 49.3652-36.4746C50.2441-36.4746 50.8301-37.0605 50.8301-37.9395L50.8301-50.0488L54.6875-50.0488L54.6875-31.2012C54.6875-30.3711 55.3223-29.7363 56.1523-29.7852C57.0312-29.7852 57.6172-30.3711 57.6172-31.25L57.6172-50.0488L61.4258-50.0488L61.4258-37.8906C61.4258-37.0605 62.1094-36.4258 62.8906-36.4746C63.7695-36.4746 64.3555-37.0605 64.3555-37.9395L64.3555-50.0488L68.2129-50.0488L68.2129-37.8906C68.2129-37.0605 68.8477-36.4258 69.6777-36.4746C70.5566-36.4746 71.0938-37.0605 71.0938-37.9395L71.1426-50.0488L74.9512-50.0488L74.9512-37.8906C74.9512-37.0605 75.5859-36.4258 76.416-36.4746C77.2949-36.4746 77.8809-37.0605 77.8809-37.9395L77.8809-50.0488L81.7383-50.0488L81.7383-37.8906C81.7383-37.0605 82.373-36.4258 83.2031-36.4746C84.0332-36.4746 84.6191-37.0605 84.6191-37.9395L84.668-50.0488L88.4766-50.0488L88.4766-31.2012C88.4766-30.3711 89.1113-29.7363 89.9414-29.7852C90.8203-29.7852 91.4062-30.3711 91.4062-31.25L91.4062-50.0488L91.5527-50.0488C95.0195-50.0488 97.0215-48.0957 97.0215-44.4824Z"/>
  </g>
  <g id="Thin-S" transform="matrix(1 0 0 1 801.637 696)">
   <path d="M99.8047-44.6777C99.8047-50.6348 96.4355-54.0527 90.4297-54.0527L19.1406-54.0527C13.1348-54.0527 9.76562-50.6348 9.76562-44.6777L9.76562-25.7812C9.76562-19.8242 13.1836-16.4551 19.1406-16.4551L90.4785-16.4551C96.4355-16.4551 99.8047-19.8242 99.8047-25.7812ZM96.5332-44.2871L96.5332-26.2207C96.5332-22.0703 94.1406-19.7754 90.0879-19.7754L19.4824-19.7754C15.4297-19.7754 13.0859-22.0703 13.0859-26.2207L13.0859-44.2871C13.0859-48.4375 15.4297-50.7324 19.5312-50.7324L19.6289-50.7324L19.6289-31.1035C19.6289-30.3711 20.1172-29.9316 20.752-29.9316C21.4844-29.9316 21.9238-30.4199 21.9238-31.1523L21.9238-50.7324L26.416-50.7324L26.416-37.7441C26.416-37.0117 26.9043-36.5234 27.5879-36.5723C28.2715-36.5723 28.7598-37.0605 28.7598-37.7441L28.7598-50.7324L33.2031-50.7324L33.2031-37.7441C33.2031-37.0117 33.6914-36.5234 34.375-36.5723C35.0586-36.5723 35.5469-37.0605 35.5469-37.7441L35.5469-50.7324L40.0391-50.7324L40.0391-37.7441C40.0391-37.0117 40.5273-36.5234 41.1621-36.5723C41.8945-36.5723 42.334-37.0605 42.334-37.7441L42.334-50.7324L46.8262-50.7324L46.8262-37.7441C46.8262-37.0117 47.3145-36.5234 47.998-36.5723C48.6816-36.5723 49.1699-37.0605 49.1699-37.7441L49.1699-50.7324L53.6621-50.7324L53.6621-31.1035C53.6621-30.3711 54.1504-29.9316 54.834-29.9316C55.5176-29.9316 56.0059-30.4199 56.0059-31.1523L56.0059-50.7324L60.498-50.7324L60.498-37.7441C60.498-37.0117 60.9863-36.5234 61.6211-36.5723C62.3535-36.5723 62.793-37.0605 62.793-37.7441L62.793-50.7324L67.2852-50.7324L67.2852-37.7441C67.2852-37.0117 67.7734-36.5234 68.457-36.5723C69.1406-36.5723 69.6289-37.0605 69.6289-37.7441L69.6289-50.7324L74.0723-50.7324L74.0723-37.7441C74.0723-37.0117 74.5605-36.5234 75.2441-36.5723C75.9277-36.5723 76.416-37.0605 76.416-37.7441L76.416-50.7324L80.9082-50.7324L80.9082-37.7441C80.9082-37.0117 81.3965-36.5234 82.0801-36.5723C82.7637-36.5723 83.2031-37.0605 83.2031-37.7441L83.2031-50.7324L87.6953-50.7324L87.6953-31.1035C87.6953-30.3711 88.1836-29.9316 88.8184-29.9316C89.5508-29.9316 89.9902-30.4199 89.9902-31.1523L89.9902-50.7324L90.0879-50.7324C94.1406-50.7324 96.5332-48.4375 96.5332-44.2871Z"/>
  </g>
  <g id="Ultralight-S" transform="matrix(1 0 0 1 505.61 696)">
   <path d="M98.4375-44.3359C98.4375-49.9512 95.1172-53.2715 89.502-53.2715L18.75-53.2715C13.0859-53.2715 9.76562-49.9512 9.76562-44.3359L9.76562-26.1719C9.76562-20.5566 13.0859-17.1875 18.75-17.1875L89.502-17.1875C95.1172-17.1875 98.4375-20.5566 98.4375-26.1719ZM96.2402-44.1895L96.2402-26.3184C96.2402-21.9238 93.7012-19.4336 89.3555-19.4336L18.8965-19.4336C14.502-19.4336 11.9629-21.9238 11.9629-26.3184L11.9629-44.1895C11.9629-48.584 14.502-51.0742 18.8965-51.0742L18.9453-51.0742L18.9453-31.0547C18.9453-30.4199 19.3359-30.0293 19.9707-30.0293C20.5566-30.0293 20.9961-30.4199 20.9961-31.0547L20.9961-51.0742L25.7812-51.0742L25.7812-37.6465C25.7812-37.0117 26.1719-36.6211 26.8066-36.6211C27.3926-36.6211 27.7832-37.0117 27.7832-37.6465L27.7832-51.0742L32.6172-51.0742L32.6172-37.6465C32.6172-37.0117 33.0078-36.6211 33.6426-36.6211C34.2285-36.6211 34.6191-37.0117 34.6191-37.6465L34.6191-51.0742L39.4531-51.0742L39.4531-37.6465C39.4531-37.0117 39.8438-36.6211 40.4297-36.6211C41.0645-36.6211 41.4551-37.0117 41.4551-37.6465L41.4551-51.0742L46.2891-51.0742L46.2891-37.6465C46.2891-37.0117 46.6797-36.6211 47.2656-36.6211C47.9004-36.6211 48.291-37.0117 48.291-37.6465L48.291-51.0742L53.125-51.0742L53.125-31.0547C53.125-30.4199 53.5645-30.0293 54.1504-30.0293C54.7852-30.0293 55.1758-30.4199 55.1758-31.0547L55.1758-51.0742L59.9609-51.0742L59.9609-37.6465C59.9609-37.0117 60.4004-36.6211 60.9863-36.6211C61.5723-36.6211 62.0117-37.0117 62.0117-37.6465L62.0117-51.0742L66.7969-51.0742L66.7969-37.6465C66.7969-37.0117 67.2363-36.6211 67.8223-36.6211C68.4082-36.6211 68.8477-37.0117 68.8477-37.6465L68.8477-51.0742L73.6328-51.0742L73.6328-37.6465C73.6328-37.0117 74.0234-36.6211 74.6582-36.6211C75.2441-36.6211 75.6836-37.0117 75.6836-37.6465L75.6836-51.0742L80.4688-51.0742L80.4688-37.6465C80.4688-37.0117 80.8594-36.6211 81.4941-36.6211C82.0801-36.6211 82.4707-37.0117 82.4707-37.6465L82.4707-51.0742L87.2559-51.0742L87.2559-31.0547C87.2559-30.4199 87.6465-30.0293 88.2812-30.0293C88.8672-30.0293 89.2578-30.4199 89.2578-31.0547L89.2578-51.0742L89.3555-51.0742C93.7012-51.0742 96.2402-48.584 96.2402-44.1895Z"/>
  </g>
 </g>
</svg>
